SplineFontDB: 3.2
FontName: Untitled1
FullName: Untitled1
FamilyName: Untitled1
Weight: Regular
Copyright: Copyright (c) 2023, gil,,,
Version: 001.000
ItalicAngle: 0
UnderlinePosition: -100
UnderlineWidth: 50
Ascent: 800
Descent: 200
InvalidEm: 0
sfntRevision: 0x00010000
woffMajor: 1
woffMinor: 0
LayerCount: 2
Layer: 0 0 "Back" 1
Layer: 1 0 "Fore" 0
XUID: [1021 295 323817675 15430617]
StyleMap: 0x0000
FSType: 0
OS2Version: 4
OS2_WeightWidthSlopeOnly: 0
OS2_UseTypoMetrics: 1
CreationTime: 1673340484
ModificationTime: 1694525496
PfmFamily: 17
TTFWeight: 400
TTFWidth: 5
LineGap: 90
VLineGap: 0
Panose: 2 0 5 9 0 0 0 0 0 0
OS2TypoAscent: 800
OS2TypoAOffset: 0
OS2TypoDescent: -200
OS2TypoDOffset: 0
OS2TypoLinegap: 90
OS2WinAscent: 800
OS2WinAOffset: 0
OS2WinDescent: 204
OS2WinDOffset: 0
HheadAscent: 800
HheadAOffset: 0
HheadDescent: -204
HheadDOffset: 0
OS2SubXSize: 650
OS2SubYSize: 700
OS2SubXOff: 0
OS2SubYOff: 140
OS2SupXSize: 650
OS2SupYSize: 700
OS2SupXOff: 0
OS2SupYOff: 480
OS2StrikeYSize: 49
OS2StrikeYPos: 258
OS2CapHeight: 633
OS2XHeight: 550
OS2Vendor: 'PfEd'
OS2CodePages: 00000001.00000000
OS2UnicodeRanges: 00000001.00000000.00000000.00000000
DEI: 91125
LangName: 1033 "" "" "" "FontForge 2.0 : Untitled1 : 16-2-2023" "" "Version 001.000"
Encoding: UnicodeBmp
UnicodeInterp: none
NameList: AGL For New Fonts
DisplaySize: -48
AntiAlias: 1
FitToEm: 0
WinInfo: 51 51 14
BeginPrivate: 7
BlueValues 32 [-75 50 617 633 665 675 707 800]
BlueScale 10 0.00833333
BlueShift 2 14
StdHW 4 [62]
StdVW 4 [62]
StemSnapH 4 [62]
StemSnapV 11 [62 90 148]
EndPrivate
BeginChars: 65537 41

StartChar: .notdef
Encoding: 65536 -1 0
Width: 1000
GlyphClass: 1
Flags: MW
HStem: 0 50<100 900 100 950> 483 50<100 900 100 100>
VStem: 50 50<50 50 50 483> 900 50<50 483 483 483>
LayerCount: 2
Fore
SplineSet
50 0 m 1
 50 533 l 1
 950 533 l 1
 950 0 l 1
 50 0 l 1
100 50 m 1
 900 50 l 1
 900 483 l 1
 100 483 l 1
 100 50 l 1
EndSplineSet
Validated: 1
EndChar

StartChar: dollar
Encoding: 36 36 1
Width: 1000
GlyphClass: 2
Flags: MW
HStem: -109.333 62.5 -26 21G<68.4028 77.4307> 50.042 104.166 161.5 62.5<148.958 260.417 148.958 148.958> 474 62.5<735.069 851.042 739.583 851.042 739.583 927.083> 545.875 101.042 704 20G<922.569 931.597> 744.833 62.5
VStem: 41.667 62.5 357.292 57.291 469.792 57.291 604.167 57.291 895.833 62.5
LayerCount: 2
Fore
SplineSet
500 -109.333007812 m 0
 422.221679688 -109.333007812 347.221679688 -86.416015625 275 -40.5830078125 c 0
 202.778320312 5.25 145.833984375 57.6806640625 104.166992188 116.708007812 c 1
 104.166992188 5.25 l 2
 104.166992188 -3.7783203125 101.215820312 -11.2431640625 95.3125 -17.1455078125 c 0
 89.4091796875 -23.048828125 81.9443359375 -26 72.9169921875 -26 c 0
 63.888671875 -26 56.423828125 -23.048828125 50.5205078125 -17.1455078125 c 0
 44.6181640625 -11.2431640625 41.6669921875 -3.7783203125 41.6669921875 5.25 c 2
 41.6669921875 192.75 l 2
 41.6669921875 201.778320312 44.6181640625 209.243164062 50.5205078125 215.145507812 c 0
 56.423828125 221.048828125 63.888671875 224 72.9169921875 224 c 2
 260.416992188 224 l 2
 269.444335938 224 276.909179688 221.048828125 282.8125 215.145507812 c 0
 288.715820312 209.243164062 291.666992188 201.778320312 291.666992188 192.75 c 0
 291.666992188 183.721679688 288.715820312 176.256835938 282.8125 170.354492188 c 0
 276.909179688 164.451171875 269.444335938 161.5 260.416992188 161.5 c 2
 148.958007812 161.5 l 1
 184.375 108.028320312 234.895507812 59.9375 300.520507812 17.2294921875 c 0
 366.145507812 -25.478515625 432.638671875 -46.8330078125 500 -46.8330078125 c 0
 604.166992188 -46.8330078125 694.09765625 -11.58984375 769.791992188 58.8955078125 c 0
 845.486328125 129.381835938 887.15234375 215.666992188 894.791992188 317.75 c 0
 895.486328125 326.778320312 898.784179688 334.243164062 904.6875 340.145507812 c 0
 910.590820312 346.048828125 918.055664062 349 927.083007812 349 c 0
 936.111328125 349 943.576171875 345.875 949.479492188 339.625 c 0
 955.381835938 333.375 957.986328125 326.083007812 957.291992188 317.75 c 0
 953.125 258.028320312 938.368164062 202.298828125 913.020507812 150.5625 c 0
 887.673828125 98.826171875 854.513671875 53.6875 813.541992188 15.1455078125 c 0
 772.569335938 -23.396484375 725.173828125 -53.7783203125 671.354492188 -76 c 0
 617.53515625 -98.2216796875 560.416992188 -109.333007812 500 -109.333007812 c 0
72.9169921875 349 m 0
 63.888671875 349 56.423828125 352.125 50.5205078125 358.375 c 0
 44.6181640625 364.625 42.013671875 371.916992188 42.7080078125 380.25 c 0
 46.875 439.971679688 61.6318359375 495.701171875 86.9794921875 547.4375 c 0
 112.326171875 599.173828125 145.486328125 644.3125 186.458007812 682.854492188 c 0
 227.430664062 721.396484375 274.826171875 751.778320312 328.645507812 774 c 0
 382.46484375 796.221679688 439.583007812 807.333007812 500 807.333007812 c 0
 577.778320312 807.333007812 652.778320312 784.416015625 725 738.583007812 c 0
 797.221679688 692.75 854.166015625 640.319335938 895.833007812 581.291992188 c 1
 895.833007812 692.75 l 2
 895.833007812 701.778320312 898.784179688 709.243164062 904.6875 715.145507812 c 0
 910.590820312 721.048828125 918.055664062 724 927.083007812 724 c 0
 936.111328125 724 943.576171875 721.048828125 949.479492188 715.145507812 c 0
 955.381835938 709.243164062 958.333007812 701.778320312 958.333007812 692.75 c 2
 958.333007812 505.25 l 2
 958.333007812 496.221679688 955.381835938 488.756835938 949.479492188 482.854492188 c 0
 943.576171875 476.951171875 936.111328125 474 927.083007812 474 c 2
 739.583007812 474 l 2
 730.555664062 474 723.090820312 476.951171875 717.1875 482.854492188 c 0
 711.284179688 488.756835938 708.333007812 496.221679688 708.333007812 505.25 c 0
 708.333007812 514.278320312 711.284179688 521.743164062 717.1875 527.645507812 c 0
 723.090820312 533.548828125 730.555664062 536.5 739.583007812 536.5 c 2
 851.041992188 536.5 l 1
 815.625 589.971679688 765.278320312 638.0625 700 680.770507812 c 0
 634.721679688 723.478515625 568.055664062 744.833007812 500 744.833007812 c 0
 395.833007812 744.833007812 305.90234375 709.58984375 230.208007812 639.104492188 c 0
 154.513671875 568.618164062 112.84765625 482.333007812 105.208007812 380.25 c 0
 104.513671875 371.221679688 101.215820312 363.756835938 95.3125 357.854492188 c 0
 89.4091796875 351.951171875 81.9443359375 349 72.9169921875 349 c 0
498.958007812 50.0419921875 m 0
 491.319335938 50.0419921875 484.548828125 52.8193359375 478.645507812 58.375 c 0
 472.743164062 63.9306640625 469.791992188 70.52734375 469.791992188 78.1669921875 c 2
 469.791992188 106.291992188 l 1
 443.40234375 113.236328125 420.659179688 123.826171875 401.5625 138.0625 c 0
 382.465820312 152.298828125 365.97265625 170.875 352.083007812 193.791992188 c 0
 347.22265625 201.430664062 346.354492188 208.895507812 349.479492188 216.1875 c 0
 352.604492188 223.479492188 358.680664062 228.861328125 367.708007812 232.333007812 c 0
 373.958007812 234.416015625 380.034179688 233.895507812 385.9375 230.770507812 c 0
 391.840820312 227.645507812 396.528320312 223.305664062 400 217.75 c 0
 410.416992188 197.611328125 425.173828125 181.986328125 444.270507812 170.875 c 0
 463.368164062 159.763671875 484.375 154.208007812 507.291992188 154.208007812 c 0
 534.375 154.208007812 557.291992188 162.020507812 576.041992188 177.645507812 c 0
 594.791992188 193.270507812 604.166992188 212.541015625 604.166992188 235.458007812 c 0
 604.166992188 257.680664062 596.180664062 275.736328125 580.208007812 289.625 c 0
 564.236328125 303.513671875 531.59765625 319.833007812 482.291992188 338.583007812 c 0
 434.375 356.638671875 401.5625 375.736328125 383.854492188 395.875 c 0
 366.146484375 416.013671875 357.291992188 443.096679688 357.291992188 477.125 c 0
 357.291992188 508.375 367.53515625 534.416992188 388.020507812 555.25 c 0
 408.506835938 576.083007812 436.458007812 588.930664062 471.875 593.791992188 c 1
 471.875 618.791992188 l 2
 471.875 626.430664062 474.826171875 633.02734375 480.729492188 638.583007812 c 0
 486.631835938 644.138671875 493.40234375 646.916992188 501.041992188 646.916992188 c 0
 508.680664062 646.916992188 515.27734375 644.138671875 520.833007812 638.583007812 c 0
 526.388671875 633.02734375 529.166992188 626.430664062 529.166992188 618.791992188 c 2
 529.166992188 593.791992188 l 1
 550.694335938 591.708984375 569.96484375 585.805664062 586.979492188 576.083007812 c 0
 603.993164062 566.361328125 618.40234375 553.166992188 630.208007812 536.5 c 0
 635.069335938 530.25 636.28515625 523.305664062 633.854492188 515.666992188 c 0
 631.423828125 508.02734375 626.388671875 502.471679688 618.75 499 c 0
 612.5 495.528320312 605.90234375 494.833984375 598.958007812 496.916992188 c 0
 592.013671875 499 586.111328125 502.819335938 581.25 508.375 c 0
 571.528320312 520.875 560.069335938 530.25 546.875 536.5 c 0
 533.680664062 542.75 518.75 545.875 502.083007812 545.875 c 0
 475 545.875 453.645507812 539.798828125 438.020507812 527.645507812 c 0
 422.395507812 515.493164062 414.583007812 498.653320312 414.583007812 477.125 c 0
 414.583007812 454.208007812 422.743164062 435.631835938 439.0625 421.395507812 c 0
 455.381835938 407.16015625 485.416992188 392.75 529.166992188 378.166992188 c 0
 577.77734375 362.194335938 611.978515625 343.444335938 631.770507812 321.916992188 c 0
 651.5625 300.388671875 661.458007812 271.569335938 661.458007812 235.458007812 c 0
 661.458007812 199.34765625 649.478515625 169.66015625 625.520507812 146.395507812 c 0
 601.5625 123.131835938 568.75 109.069335938 527.083007812 104.208007812 c 1
 527.083007812 79.2080078125 l 2
 527.083007812 71.5693359375 524.305664062 64.798828125 518.75 58.8955078125 c 0
 513.194335938 52.9931640625 506.59765625 50.0419921875 498.958007812 50.0419921875 c 0
EndSplineSet
Validated: 524289
EndChar

StartChar: plus
Encoding: 43 43 2
Width: 1000
GlyphClass: 2
Flags: MW
HStem: 175 207.292
LayerCount: 2
Fore
SplineSet
500 175 m 1
 291.666992188 382.291992188 l 1
 708.333007812 382.291992188 l 1
 500 175 l 1
EndSplineSet
Validated: 524289
EndChar

StartChar: comma
Encoding: 44 44 3
Width: 1000
GlyphClass: 2
Flags: MW
HStem: -101.667 62.498<471.55 500.277> 279.583 62.5<318.49 471.875 322.917 471.875 534.375 677.083> 669.167 62.5<471.76 529.273 471.76 549.435>
VStem: 83.3291 62.502<286.764 344.278> 471.875 62.5<137.917 279.583 342.083 492.083> 854.167 62.4951<286.556 344.007 286.556 364.653>
LayerCount: 2
Fore
SplineSet
471.875 279.583007812 m 1
 322.916992188 279.583007812 l 2
 314.0625 279.583007812 306.640625 282.534179688 300.651367188 288.4375 c 0
 294.662109375 294.340820312 291.666992188 301.745117188 291.666992188 310.651367188 c 0
 291.666992188 319.556640625 294.662109375 327.022460938 300.651367188 333.046875 c 0
 306.640625 339.071289062 314.0625 342.083007812 322.916992188 342.083007812 c 2
 471.875 342.083007812 l 1
 471.875 492.083007812 l 2
 471.875 500.9375 474.826171875 508.359375 480.729492188 514.348632812 c 0
 486.631835938 520.337890625 494.036132812 523.333007812 502.942382812 523.333007812 c 0
 511.84765625 523.333007812 519.313476562 520.337890625 525.338867188 514.348632812 c 0
 531.36328125 508.359375 534.375 500.9375 534.375 492.083007812 c 2
 534.375 342.083007812 l 1
 677.083007812 342.083007812 l 2
 685.9375 342.083007812 693.359375 339.131835938 699.348632812 333.229492188 c 0
 705.337890625 327.326171875 708.333007812 319.921875 708.333007812 311.015625 c 0
 708.333007812 302.110351562 705.337890625 294.64453125 699.348632812 288.620117188 c 0
 693.359375 282.595703125 685.9375 279.583007812 677.083007812 279.583007812 c 2
 534.375 279.583007812 l 1
 534.375 137.916992188 l 2
 534.375 129.0625 531.423828125 121.640625 525.520507812 115.651367188 c 0
 519.618164062 109.662109375 512.213867188 106.666992188 503.307617188 106.666992188 c 0
 494.40234375 106.666992188 486.936523438 109.662109375 480.911132812 115.651367188 c 0
 474.88671875 121.640625 471.875 129.0625 471.875 137.916992188 c 2
 471.875 279.583007812 l 1
500.27734375 -101.666992188 m 1
 442.823242188 -101.666992188 388.830078125 -90.7294921875 338.297851562 -68.8544921875 c 0
 287.765625 -46.9794921875 243.575195312 -17.1181640625 205.724609375 20.7294921875 c 0
 167.877929688 58.576171875 138.016601562 102.791992188 116.141601562 153.375 c 0
 94.2666015625 203.958007812 83.3291015625 258.006835938 83.3291015625 315.520507812 c 0
 83.3291015625 373.03515625 94.2666015625 427.083984375 116.141601562 477.666992188 c 0
 138.016601562 528.250976562 167.877929688 572.29296875 205.724609375 609.791992188 c 0
 243.572265625 647.291015625 287.788085938 676.978515625 338.37109375 698.854492188 c 0
 388.954101562 720.729492188 443.002929688 731.666992188 500.516601562 731.666992188 c 0
 558.030273438 731.666992188 612.079101562 720.729492188 662.662109375 698.854492188 c 0
 713.24609375 676.979492188 757.288085938 647.291992188 794.787109375 609.791992188 c 0
 832.286132812 572.291992188 861.973632812 528.194335938 883.849609375 477.5 c 0
 905.724609375 426.805664062 916.662109375 372.732421875 916.662109375 315.28125 c 0
 916.662109375 257.830078125 905.724609375 203.836914062 883.849609375 153.301757812 c 0
 861.974609375 102.767578125 832.287109375 58.642578125 794.787109375 20.9267578125 c 0
 757.287109375 -16.79296875 713.190429688 -46.6533203125 662.49609375 -68.65625 c 0
 611.801757812 -90.6591796875 557.728515625 -101.66015625 500.27734375 -101.66015625 c 1
 500.27734375 -101.666992188 l 1
500.520507812 -39.1669921875 m 1
 598.78515625 -39.1669921875 682.291992188 -4.6181640625 751.041992188 64.4794921875 c 0
 819.791992188 133.576171875 854.166992188 217.256835938 854.166992188 315.520507812 c 0
 854.166992188 413.78515625 819.857421875 497.291992188 751.237304688 566.041992188 c 0
 682.6171875 634.791992188 598.87109375 669.166992188 499.998046875 669.166992188 c 0
 402.081054688 669.166992188 318.57421875 634.857421875 249.477539062 566.237304688 c 0
 180.379882812 497.6171875 145.831054688 413.87109375 145.831054688 314.998046875 c 0
 145.831054688 217.081054688 180.379882812 133.57421875 249.477539062 64.4775390625 c 0
 318.57421875 -4.6201171875 402.254882812 -39.1689453125 500.518554688 -39.1689453125 c 1
 500.520507812 -39.1669921875 l 1
EndSplineSet
Validated: 524289
EndChar

StartChar: one
Encoding: 49 49 4
Width: 1000
GlyphClass: 2
Flags: MW
HStem: 296.958 171.834 601.625 195.333
VStem: 578.083 421.917
LayerCount: 2
Fore
SplineSet
1000 296.958007812 m 0
 1000 47.4169921875 817.166992188 -159.458007812 578.083007812 -197 c 1
 578.083007812 152.375 l 1
 694.583007812 152.375 l 1
 716.75 296.958007812 l 1
 578.083007812 296.958007812 l 1
 578.083007812 390.708007812 l 2
 578.083007812 430.25 597.458007812 468.791992188 659.583007812 468.791992188 c 2
 722.666992188 468.791992188 l 1
 722.666992188 591.833007812 l 1
 722.666992188 591.833007812 665.416992188 601.625 610.75 601.625 c 0
 496.541992188 601.625 421.875 532.375 421.875 407.083007812 c 2
 421.875 297 l 1
 294.916992188 297 l 1
 294.916992188 152.416992188 l 1
 421.875 152.416992188 l 1
 421.875 -196.958007812 l 1
 182.833007812 -159.458007812 0 47.375 0 296.958007812 c 0
 0 573.083007812 223.875 796.958007812 500 796.958007812 c 0
 776.125 796.958007812 1000 573.083007812 1000 296.958007812 c 0
EndSplineSet
Validated: 524289
EndChar

StartChar: two
Encoding: 50 50 5
Width: 1000
GlyphClass: 2
Flags: MW
HStem: -197 87.083 43.25 90.083 466.667 90.083 506.875 119.958 711.25 88.75<432.083 498.125>
VStem: 3 87.667 243.25 90.083 666.667 90.083 706.917 120 909.917 90.083
LayerCount: 2
Fore
SplineSet
500 800 m 0xce40
 635.833007812 800 652.791992188 799.5 706.125 797 c 0
 759.333007812 794.541992188 795.625 786.125 827.5 773.75 c 0
 860.458007812 761.041992188 888.291992188 743.875 916.083007812 716.083007812 c 0
 943.833007812 688.291992188 961 660.375 973.75 627.5 c 0
 986.083007812 595.666992188 994.5 559.333007812 997 506.125 c 0
 999.375 452.791992188 1000 435.833007812 1000 300 c 0
 1000 164.166992188 999.5 147.208007812 997 93.875 c 0
 994.541992188 40.6669921875 986.083007812 4.375 973.75 -27.5 c 0
 961.041992188 -60.4580078125 943.833007812 -88.2919921875 916.083007812 -116.083007812 c 0
 888.291992188 -143.833007812 860.333007812 -161 827.5 -173.75 c 0
 795.625 -186.083007812 759.333007812 -194.5 706.125 -197 c 0
 652.791992188 -199.375 635.833007812 -200 500 -200 c 0
 364.166992188 -200 347.208007812 -199.5 293.875 -197 c 0
 240.666992188 -194.541992188 204.416992188 -186.083007812 172.5 -173.75 c 0
 139.583007812 -161.041992188 111.708007812 -143.833007812 83.9169921875 -116.083007812 c 0
 56.125 -88.2919921875 39 -60.3330078125 26.25 -27.5 c 0
 13.875 4.375 5.5 40.6669921875 3 93.875 c 0
 0.625 147.208007812 0 164.166992188 0 300 c 0
 0 435.833007812 0.5 452.791992188 3 506.125 c 0
 5.4580078125 559.375 13.875 595.625 26.25 627.5 c 0
 38.9580078125 660.416992188 56.125 688.291992188 83.9169921875 716.083007812 c 0
 111.708007812 743.875 139.625 761 172.5 773.75 c 0
 204.375 786.125 240.625 794.5 293.875 797 c 0
 347.208007812 799.375 364.166992188 800 500 800 c 0xce40
500 710 m 1
 498.125 711.25 l 1
 364.416992188 711.25 348.791992188 710.625 295.666992188 708.75 c 0
 246.916992188 706.25 220.625 698.125 203.125 691.208007812 c 0
 179.416992188 682.5 163.125 671.25 145.666992188 653.791992188 c 0
 128.125 636.25 116.916992188 620 108.166992188 596.25 c 0
 101.291992188 578.75 93.2080078125 551.916992188 90.6669921875 503.166992188 c 0
 88.7919921875 450.041992188 88.125 433.791992188 88.125 300.625 c 0
 88.125 167.5 88.7919921875 151.291992188 90.6669921875 98.7919921875 c 0
 93.2080078125 50.0419921875 101.291992188 23.1669921875 108.166992188 5.6669921875 c 0
 116.916992188 -17.5 128.125 -34.375 145.666992188 -51.8330078125 c 0
 163.125 -69.3330078125 179.416992188 -79.9580078125 203.125 -89.2919921875 c 0
 220.625 -96.1669921875 247.5 -104.291992188 296.291992188 -106.833007812 c 0
 349.333007812 -109.291992188 364.958007812 -109.916992188 498.75 -109.916992188 c 0
 632.5 -109.916992188 648.125 -109.375 701.208007812 -107 c 0
 749.958007812 -104.791992188 776.833007812 -96.625 794.333007812 -89.7919921875 c 0
 817.5 -80.75 834.375 -69.9169921875 851.833007812 -52.4580078125 c 0
 869.333007812 -34.875 879.958007812 -18.2919921875 889.291992188 5.125 c 0
 896.166992188 22.7080078125 904.291992188 49.1669921875 906.833007812 97.9169921875 c 0
 909.291992188 150.625 909.916992188 166.5 909.916992188 300 c 0
 909.916992188 433.5 909.375 449.333007812 907 502.083007812 c 0
 904.791992188 550.833007812 896.625 577.291992188 889.791992188 594.875 c 0
 880.75 618.291992188 869.916992188 634.916992188 852.458007812 652.416992188 c 0
 834.875 669.875 818.291992188 680.708007812 794.875 689.75 c 0
 777.291992188 696.666992188 750.833007812 704.75 702.083007812 707.041992188 c 0
 649.375 709.333007812 633.458007812 710 500 710 c 1
500 556.75 m 0xef40
 641.75 556.75 756.75 441.875 756.75 300 c 0
 756.75 158.25 641.875 43.25 500 43.25 c 0
 358.25 43.25 243.25 158.125 243.25 300 c 0
 243.25 441.75 358.125 556.75 500 556.75 c 0xef40
500 133.333007812 m 0
 592.083007812 133.333007812 666.666992188 207.916992188 666.666992188 300 c 0
 666.666992188 392.083007812 592.083007812 466.666992188 500 466.666992188 c 0
 407.916992188 466.666992188 333.333007812 392.083007812 333.333007812 300 c 0
 333.333007812 207.916992188 407.916992188 133.333007812 500 133.333007812 c 0
826.916992188 566.875 m 0xdec0
 826.916992188 533.75 800 506.875 766.916992188 506.875 c 0
 733.791992188 506.875 706.916992188 533.791992188 706.916992188 566.875 c 0
 706.916992188 599.958007812 733.833007812 626.833007812 766.916992188 626.833007812 c 0
 799.958007812 626.875 826.916992188 599.958007812 826.916992188 566.875 c 0xdec0
EndSplineSet
Validated: 524321
EndChar

StartChar: three
Encoding: 51 51 6
Width: 1000
GlyphClass: 2
Flags: MW
HStem: -200 147.833 425 65.292 437.042 362.958 662.292 137.708
VStem: 0 136.417 0 148.125<-52.167 425 -52.167 727.958> 296.625 93<-52.167 425 -52.167 425> 537.708 166.167 852 148<209.75 274.021>
LayerCount: 2
Fore
SplineSet
851.958007812 -52.1669921875 m 1xc380
 852 209.75 l 2
 852 338.291992188 824.25 437.041992188 674.208007812 437.041992188 c 0xa380
 602 437.041992188 553.666992188 397.458007812 533.791992188 359.958007812 c 1
 531.875 359.958007812 l 1
 531.875 425 l 1
 389.625 425 l 1
 389.625 -52.1669921875 l 1
 537.708007812 -52.1669921875 l 1
 537.708007812 183.958007812 l 2
 537.708007812 246.208007812 549.5 306.416992188 626.708007812 306.416992188 c 0
 702.75 306.416992188 703.875 235.208007812 703.875 179.875 c 2
 703.875 -52.1669921875 l 1
 851.958007812 -52.1669921875 l 1xc380
222.375 490.291992188 m 0xdb80
 269.833007812 490.291992188 308.375 528.875 308.375 576.333007812 c 0
 308.375 623.75 269.875 662.291992188 222.375 662.291992188 c 0
 174.75 662.291992188 136.416992188 623.75 136.416992188 576.333007812 c 0
 136.416992188 528.875 174.708007812 490.291992188 222.375 490.291992188 c 0xdb80
296.625 -52.1669921875 m 1
 296.625 425 l 1
 148.125 425 l 1
 148.125 -52.1669921875 l 1xc780
 296.625 -52.1669921875 l 1
926.041992188 800 m 1x9b80
 925.916992188 800 l 1
 966.666992188 800 1000 767.75 1000 727.958007812 c 2
 1000 -127.958007812 l 2
 1000 -167.791992188 966.666992188 -200 925.916992188 -200 c 2
 73.7919921875 -200 l 2
 33 -200 0 -167.791992188 0 -127.958007812 c 2
 0 727.958007812 l 2
 0 767.75 33 800 73.7919921875 800 c 2
 926.041992188 800 l 1x9b80
EndSplineSet
Validated: 524293
EndChar

StartChar: four
Encoding: 52 52 7
Width: 1000
GlyphClass: 2
Flags: MW
HStem: -199.583 161.25 236.667 185 383.75 167.917
VStem: 66.458 173.334 521.042 170.833 521.875 162.917
LayerCount: 2
Fore
SplineSet
521.875 799.166992188 m 1xd4
 576.458007812 800 630.625 799.583007812 684.791992188 800 c 1
 688.125 736.25 711.041992188 671.25 757.708007812 626.25 c 0
 804.375 580 870.208007812 558.75 934.375 551.666992188 c 1
 934.375 383.75 l 1xb4
 874.375 385.833007812 813.958007812 398.333007812 759.375 424.166992188 c 0
 735.625 435 713.541992188 448.75 691.875 462.916992188 c 1
 691.458007812 341.25 692.291992188 219.583007812 691.041992188 98.3330078125 c 0
 687.708007812 40 668.541992188 -17.9169921875 634.791992188 -65.8330078125 c 0
 580.208007812 -145.833007812 485.625 -197.916992188 388.541992188 -199.583007812 c 0
 328.958007812 -202.916992188 269.375 -186.666992188 218.541992188 -156.666992188 c 0
 134.375 -107.083007812 75.2080078125 -16.25 66.4580078125 81.25 c 0
 65.625 102.083007812 65.2080078125 122.916992188 66.0419921875 143.333007812 c 0
 73.5419921875 222.5 112.708007812 298.333007812 173.541992188 350 c 0
 242.708007812 410 339.375 438.75 429.791992188 421.666992188 c 1
 430.625 360 428.125 298.333007812 428.125 236.666992188 c 1
 386.875 250 338.541992188 246.25 302.291992188 221.25 c 0
 276.041992188 204.166992188 256.041992188 177.916992188 245.625 148.333007812 c 0
 236.875 127.083007812 239.375 103.75 239.791992188 81.25 c 0
 249.791992188 12.9169921875 315.625 -44.5830078125 385.625 -38.3330078125 c 0
 432.291992188 -37.9169921875 476.875 -10.8330078125 501.041992188 28.75 c 0
 508.958007812 42.5 517.708007812 56.6669921875 518.125 72.9169921875 c 0
 522.291992188 147.5 520.625 221.666992188 521.041992188 296.25 c 0xd8
 521.458007812 464.166992188 520.625 631.666992188 521.875 799.166992188 c 1xd4
EndSplineSet
Validated: 524321
EndChar

StartChar: five
Encoding: 53 53 8
Width: 1000
GlyphClass: 2
Flags: MW
HStem: 589.583 20G
LayerCount: 2
Fore
SplineSet
998.041992188 609.583007812 m 1
 1000 608.75 l 1
 972.466796875 567.508789062 937.75 531.547851562 897.5 502.583007812 c 1
 898.125 493.833007812 898.125 485.083007812 898.125 476.333007812 c 0
 898.125 205.958007812 692.083007812 -106.310546875 314.875 -106.375 c 0
 203.270507812 -106.395507812 93.9873046875 -74.5126953125 0 -14.3330078125 c 1
 16.2919921875 -16.1669921875 32.5 -17.125 48.75 -17.125 c 0
 140.9375 -17.220703125 230.479492188 13.6708984375 303 70.5830078125 c 1
 215.220703125 72.2333984375 138.168945312 129.420898438 111.166992188 212.958007812 c 1
 141.766601562 207.232421875 173.262695312 208.442382812 203.333007812 216.5 c 1
 107.650390625 235.875 38.87890625 320 38.9169921875 417.625 c 2
 38.9169921875 420.125 l 1
 67.375 404.293945312 99.2021484375 395.494140625 131.75 394.458007812 c 1
 76.8330078125 431.25 40.5830078125 493.875 40.5830078125 565.125 c 0
 40.3603515625 601.375 49.94921875 637.0078125 68.3330078125 668.25 c 1
 169.458007812 544.583007812 320.416992188 462.708007812 490.833007812 454.666992188 c 1
 442.983398438 659.056640625 696.787109375 794.737304688 840.166992188 641.416992188 c 1
 886.916992188 650.791992188 930.833007812 667.625 970.458007812 690.75 c 1
 955.099609375 643.291992188 923.087890625 602.989257812 880.333007812 577.291992188 c 1
 920.94140625 582.21875 960.603515625 593.099609375 998.041992188 609.583007812 c 1
EndSplineSet
Validated: 524321
EndChar

StartChar: six
Encoding: 54 54 9
Width: 1000
GlyphClass: 2
Flags: W
LayerCount: 2
Fore
SplineSet
979.083007812 542.25 m 0
 1000 463.75 1000 300 1000 300 c 1
 1000 300 1000 136.25 979.125 57.75 c 0
 968.877929688 19.123046875 929.267578125 -20.7490234375 890.708007812 -31.25 c 0
 812.708007812 -52.2919921875 500 -52.2919921875 500 -52.2919921875 c 1
 500 -52.2919921875 187.291992188 -52.2919921875 109.333007812 -31.25 c 0
 70.7802734375 -20.7431640625 31.169921875 19.12890625 20.9169921875 57.75 c 0
 0 136.25 0 300 0 300 c 1
 0 300 0 463.75 20.9169921875 542.25 c 0
 31.1689453125 580.853515625 70.7607421875 620.725585938 109.291992188 631.25 c 0
 187.291992188 652.291992188 500 652.291992188 500 652.291992188 c 1
 500 652.291992188 812.708007812 652.291992188 890.666992188 631.25 c 0
 929.219726562 620.743164062 968.830078125 580.87109375 979.083007812 542.25 c 0
397.708007812 151.333007812 m 1
 659.083007812 300 l 1
 397.708007812 448.666992188 l 1
 397.708007812 151.333007812 l 1
EndSplineSet
Validated: 524289
EndChar

StartChar: colon
Encoding: 58 58 10
Width: 1000
GlyphClass: 2
Flags: MW
HStem: -33.333 100 250 100<493.056 506.944> 533.333 100
VStem: 450 100<9.72217 23.6113 293.056 306.944 576.389 590.278>
CounterMasks: 1 e0
LayerCount: 2
Fore
SplineSet
500 -33.3330078125 m 0
 486.111328125 -33.3330078125 474.305664062 -28.4716796875 464.583007812 -18.75 c 0
 454.861328125 -9.0283203125 450 2.77734375 450 16.6669921875 c 0
 450 30.5556640625 454.861328125 42.361328125 464.583007812 52.0830078125 c 0
 474.305664062 61.8056640625 486.111328125 66.6669921875 500 66.6669921875 c 0
 513.888671875 66.6669921875 525.694335938 61.8056640625 535.416992188 52.0830078125 c 0
 545.138671875 42.361328125 550 30.5556640625 550 16.6669921875 c 0
 550 2.77734375 545.138671875 -9.0283203125 535.416992188 -18.75 c 0
 525.694335938 -28.4716796875 513.888671875 -33.3330078125 500 -33.3330078125 c 0
500 250 m 0
 486.111328125 250 474.305664062 254.861328125 464.583007812 264.583007812 c 0
 454.861328125 274.305664062 450 286.111328125 450 300 c 0
 450 313.888671875 454.861328125 325.694335938 464.583007812 335.416992188 c 0
 474.305664062 345.138671875 486.111328125 350 500 350 c 0
 513.888671875 350 525.694335938 345.138671875 535.416992188 335.416992188 c 0
 545.138671875 325.694335938 550 313.888671875 550 300 c 0
 550 286.111328125 545.138671875 274.305664062 535.416992188 264.583007812 c 0
 525.694335938 254.861328125 513.888671875 250 500 250 c 0
500 533.333007812 m 0
 486.111328125 533.333007812 474.305664062 538.194335938 464.583007812 547.916992188 c 0
 454.861328125 557.638671875 450 569.444335938 450 583.333007812 c 0
 450 597.22265625 454.861328125 609.028320312 464.583007812 618.75 c 0
 474.305664062 628.471679688 486.111328125 633.333007812 500 633.333007812 c 0
 513.888671875 633.333007812 525.694335938 628.471679688 535.416992188 618.75 c 0
 545.138671875 609.028320312 550 597.22265625 550 583.333007812 c 0
 550 569.444335938 545.138671875 557.638671875 535.416992188 547.916992188 c 0
 525.694335938 538.194335938 513.888671875 533.333007812 500 533.333007812 c 0
EndSplineSet
Validated: 524289
EndChar

StartChar: less
Encoding: 60 60 11
Width: 1000
GlyphClass: 2
Flags: MW
HStem: 532.083 20G
VStem: 333.333 295.834
LayerCount: 2
Fore
SplineSet
584.375 50 m 1
 333.333007812 301.041992188 l 1
 584.375 552.083007812 l 1
 629.166992188 507.291992188 l 1
 422.916992188 301.041992188 l 1
 629.166992188 94.7919921875 l 1
 584.375 50 l 1
EndSplineSet
Validated: 524289
EndChar

StartChar: greater
Encoding: 62 62 12
Width: 1000
GlyphClass: 2
Flags: MW
HStem: 532.083 20G
VStem: 345.833 295.834
LayerCount: 2
Fore
SplineSet
390.625 50 m 1
 345.833007812 94.7919921875 l 1
 552.083007812 301.041992188 l 1
 345.833007812 507.291992188 l 1
 390.625 552.083007812 l 1
 641.666992188 301.041992188 l 1
 390.625 50 l 1
EndSplineSet
Validated: 524289
EndChar

StartChar: at
Encoding: 64 64 13
Width: 1000
GlyphClass: 2
Flags: MW
HStem: 91.667 62.5 268.75 62.5 445.833 62.5
VStem: 83.333 62.5 854.167 62.5
CounterMasks: 1 e0
LayerCount: 2
Fore
SplineSet
291.666992188 91.6669921875 m 2
 232.638671875 91.6669921875 183.159179688 111.633789062 143.228515625 151.564453125 c 0
 103.297851562 191.495117188 83.33203125 240.974609375 83.33203125 300.002929688 c 0
 83.33203125 359.03125 103.297851562 408.510742188 143.228515625 448.44140625 c 0
 183.159179688 488.372070312 232.638671875 508.336914062 291.666992188 508.336914062 c 2
 437.5 508.336914062 l 2
 446.528320312 508.336914062 453.993164062 505.385742188 459.895507812 499.483398438 c 0
 465.798828125 493.580078125 468.75 486.114257812 468.75 477.0859375 c 0
 468.75 468.05859375 465.798828125 460.59375 459.895507812 454.690429688 c 0
 453.993164062 448.787109375 446.528320312 445.8359375 437.5 445.8359375 c 2
 291.666992188 445.8359375 l 2
 250 445.8359375 215.27734375 431.947265625 187.499023438 404.169921875 c 0
 159.720703125 376.391601562 145.83203125 341.668945312 145.83203125 300.001953125 c 0
 145.83203125 258.334960938 159.720703125 223.612304688 187.499023438 195.833984375 c 0
 215.27734375 168.056640625 250 154.16796875 291.666992188 154.16796875 c 2
 437.5 154.16796875 l 2
 446.528320312 154.16796875 453.993164062 151.216796875 459.895507812 145.313476562 c 0
 465.798828125 139.41015625 468.75 131.9453125 468.75 122.91796875 c 0
 468.75 113.889648438 465.798828125 106.423828125 459.895507812 100.520507812 c 0
 453.993164062 94.6181640625 446.528320312 91.6669921875 437.5 91.6669921875 c 2
 291.666992188 91.6669921875 l 2
369.791992188 268.751953125 m 2
 360.763671875 268.751953125 353.297851562 271.703125 347.39453125 277.606445312 c 0
 341.4921875 283.508789062 338.541015625 290.973632812 338.541015625 300.001953125 c 0
 338.541015625 309.030273438 341.4921875 316.495117188 347.39453125 322.397460938 c 0
 353.297851562 328.30078125 360.763671875 331.251953125 369.791992188 331.251953125 c 2
 630.208007812 331.251953125 l 2
 639.236328125 331.251953125 646.702148438 328.30078125 652.60546875 322.397460938 c 0
 658.5078125 316.495117188 661.458984375 309.030273438 661.458984375 300.001953125 c 0
 661.458984375 290.973632812 658.5078125 283.508789062 652.60546875 277.606445312 c 0
 646.702148438 271.703125 639.236328125 268.751953125 630.208007812 268.751953125 c 2
 369.791992188 268.751953125 l 2
562.5 91.6689453125 m 2
 553.471679688 91.6689453125 546.006835938 94.6181640625 540.104492188 100.520507812 c 0
 534.201171875 106.423828125 531.25 113.889648438 531.25 122.91796875 c 0
 531.25 131.9453125 534.201171875 139.41015625 540.104492188 145.313476562 c 0
 546.006835938 151.216796875 553.471679688 154.16796875 562.5 154.16796875 c 2
 708.333007812 154.16796875 l 2
 750 154.16796875 784.72265625 168.056640625 812.500976562 195.833984375 c 0
 840.279296875 223.612304688 854.16796875 258.334960938 854.16796875 300.001953125 c 0
 854.16796875 341.668945312 840.279296875 376.391601562 812.500976562 404.169921875 c 0
 784.72265625 431.947265625 750 445.8359375 708.333007812 445.8359375 c 2
 562.5 445.8359375 l 2
 553.471679688 445.8359375 546.006835938 448.787109375 540.104492188 454.690429688 c 0
 534.201171875 460.59375 531.25 468.05859375 531.25 477.0859375 c 0
 531.25 486.114257812 534.201171875 493.580078125 540.104492188 499.483398438 c 0
 546.006835938 505.385742188 553.471679688 508.336914062 562.5 508.336914062 c 2
 708.333007812 508.336914062 l 2
 767.361328125 508.336914062 816.840820312 488.372070312 856.771484375 448.44140625 c 0
 896.702148438 408.510742188 916.66796875 359.03125 916.66796875 300.002929688 c 0
 916.66796875 240.974609375 896.702148438 191.495117188 856.771484375 151.564453125 c 0
 816.840820312 111.633789062 767.361328125 91.6689453125 708.333007812 91.6689453125 c 2
 562.5 91.6689453125 l 2
EndSplineSet
Validated: 524289
EndChar

StartChar: B
Encoding: 66 66 14
Width: 1000
GlyphClass: 2
Flags: MW
HStem: 269.792 62.5
LayerCount: 2
Fore
SplineSet
352.083007812 75 m 2
 146.875 279.168945312 l 2
 143.403320312 282.640625 140.97265625 286.112304688 139.583007812 289.583984375 c 0
 138.194335938 293.056640625 137.5 296.875976562 137.5 301.04296875 c 0
 137.5 305.209960938 138.194335938 309.029296875 139.583007812 312.500976562 c 0
 140.97265625 315.97265625 143.403320312 319.4453125 146.875 322.91796875 c 2
 352.083007812 528.125976562 l 2
 357.638671875 533.681640625 364.930664062 536.6328125 373.958007812 536.98046875 c 0
 382.986328125 537.327148438 390.625 534.375976562 396.875 528.125976562 c 0
 403.125 521.875976562 406.25 514.411132812 406.25 505.73046875 c 0
 406.25 497.049804688 403.125 489.583984375 396.875 483.333984375 c 2
 245.833007812 332.29296875 l 1
 843.75 332.29296875 l 2
 852.778320312 332.29296875 860.243164062 329.341796875 866.145507812 323.438476562 c 0
 872.048828125 317.53515625 875 310.0703125 875 301.04296875 c 0
 875 292.014648438 872.048828125 284.548828125 866.145507812 278.645507812 c 0
 860.243164062 272.743164062 852.778320312 269.791992188 843.75 269.791992188 c 2
 245.833007812 269.791992188 l 1
 396.875 118.75 l 2
 402.430664062 113.194335938 405.381835938 106.076171875 405.729492188 97.3955078125 c 0
 406.076171875 88.71484375 403.125 81.25 396.875 75 c 0
 390.625 68.75 383.16015625 65.625 374.479492188 65.625 c 0
 365.798828125 65.625 358.333007812 68.75 352.083007812 75 c 2
EndSplineSet
Validated: 524289
EndChar

StartChar: D
Encoding: 68 68 15
Width: 1000
GlyphClass: 2
Flags: MW
VStem: 468.75 62.5<85.417 602.083 85.417 606.597>
LayerCount: 2
Fore
SplineSet
500 -20.8330078125 m 0
 496.528320312 -20.8330078125 492.880859375 -20.138671875 489.061523438 -18.75 c 0
 485.2421875 -17.361328125 481.596679688 -14.9306640625 478.125 -11.4580078125 c 2
 188.541992188 278.125 l 2
 182.291992188 284.375 179.166992188 291.666992188 179.166992188 300 c 0
 179.166992188 308.333007812 182.291992188 315.625 188.541992188 321.875 c 0
 194.791992188 328.125 202.083984375 331.25 210.416992188 331.25 c 0
 218.75 331.25 226.041992188 328.125 232.291992188 321.875 c 2
 468.75 85.4169921875 l 1
 468.75 602.083007812 l 2
 468.75 611.111328125 471.701171875 618.577148438 477.604492188 624.48046875 c 0
 483.506835938 630.3828125 490.971679688 633.333984375 500 633.333984375 c 0
 509.028320312 633.333984375 516.493164062 630.3828125 522.395507812 624.48046875 c 0
 528.298828125 618.577148438 531.25 611.111328125 531.25 602.083007812 c 2
 531.25 85.4169921875 l 1
 767.708007812 321.875 l 2
 773.958007812 328.125 781.25 331.25 789.583007812 331.25 c 0
 797.916015625 331.25 805.208007812 328.125 811.458007812 321.875 c 0
 817.708007812 315.625 820.833007812 308.333007812 820.833007812 300 c 0
 820.833007812 291.666992188 817.708007812 284.375 811.458007812 278.125 c 2
 521.875 -11.4580078125 l 2
 518.403320312 -14.9306640625 514.930664062 -17.361328125 511.458007812 -18.75 c 0
 507.986328125 -20.138671875 504.166992188 -20.8330078125 500 -20.8330078125 c 0
EndSplineSet
Validated: 524289
EndChar

StartChar: L
Encoding: 76 76 16
Width: 1000
GlyphClass: 2
Flags: MW
HStem: 268.75 62.5<272.917 789.583 272.917 789.583>
LayerCount: 2
Fore
SplineSet
465.625 -11.4580078125 m 2
 176.041992188 278.125 l 2
 172.569335938 281.596679688 170.138671875 285.069335938 168.75 288.541992188 c 0
 167.361328125 292.013671875 166.666992188 295.833007812 166.666992188 300 c 0
 166.666992188 304.166992188 167.361328125 307.986328125 168.75 311.458007812 c 0
 170.138671875 314.930664062 172.569335938 318.403320312 176.041992188 321.875 c 2
 466.666992188 612.5 l 2
 472.22265625 618.055664062 479.166992188 620.833007812 487.5 620.833007812 c 0
 495.833007812 620.833007812 503.125 617.708007812 509.375 611.458007812 c 0
 515.625 605.208007812 518.75 597.916015625 518.75 589.583007812 c 0
 518.75 581.25 515.625 573.958007812 509.375 567.708007812 c 2
 272.916992188 331.25 l 1
 789.583007812 331.25 l 2
 798.611328125 331.25 806.077148438 328.298828125 811.98046875 322.395507812 c 0
 817.8828125 316.493164062 820.833984375 309.028320312 820.833984375 300 c 0
 820.833984375 290.971679688 817.8828125 283.506835938 811.98046875 277.604492188 c 0
 806.077148438 271.701171875 798.611328125 268.75 789.583007812 268.75 c 2
 272.916992188 268.75 l 1
 510.416992188 31.25 l 2
 515.97265625 25.6943359375 518.75 18.75 518.75 10.4169921875 c 0
 518.75 2.083984375 515.625 -5.2080078125 509.375 -11.4580078125 c 0
 503.125 -17.7080078125 495.833007812 -20.8330078125 487.5 -20.8330078125 c 0
 479.166992188 -20.8330078125 471.875 -17.7080078125 465.625 -11.4580078125 c 2
EndSplineSet
Validated: 524289
EndChar

StartChar: M
Encoding: 77 77 17
Width: 1000
GlyphClass: 2
Flags: MW
HStem: -33.333 62.5 570.833 62.5
VStem: 83.333 62.5 854.167 62.5
LayerCount: 2
Fore
SplineSet
145.833007812 -33.3330078125 m 2
 129.166015625 -33.3330078125 114.583007812 -27.0830078125 102.083007812 -14.5830078125 c 0
 89.5830078125 -2.0830078125 83.3330078125 12.5 83.3330078125 29.1669921875 c 2
 83.3330078125 570.833007812 l 2
 83.3330078125 587.5 89.5830078125 602.083007812 102.083007812 614.583007812 c 0
 114.583007812 627.083007812 129.166015625 633.333007812 145.833007812 633.333007812 c 2
 854.166992188 633.333007812 l 2
 870.833984375 633.333007812 885.416992188 627.083007812 897.916992188 614.583007812 c 0
 910.416992188 602.083007812 916.666992188 587.5 916.666992188 570.833007812 c 2
 916.666992188 29.1669921875 l 2
 916.666992188 12.5 910.416992188 -2.0830078125 897.916992188 -14.5830078125 c 0
 885.416992188 -27.0830078125 870.833984375 -33.3330078125 854.166992188 -33.3330078125 c 2
 145.833007812 -33.3330078125 l 2
854.166992188 513.541992188 m 1
 516.666992188 292.708007812 l 2
 513.888671875 291.319335938 511.284179688 290.104492188 508.853515625 289.0625 c 0
 506.422851562 288.020507812 503.471679688 287.5 500 287.5 c 0
 496.528320312 287.5 493.577148438 288.020507812 491.146484375 289.0625 c 0
 488.715820312 290.104492188 486.111328125 291.319335938 483.333007812 292.708007812 c 2
 145.833007812 513.541992188 l 1
 145.833007812 29.1669921875 l 1
 854.166992188 29.1669921875 l 1
 854.166992188 513.541992188 l 1
500 343.75 m 1
 850 570.833007812 l 1
 151.041992188 570.833007812 l 1
 500 343.75 l 1
145.833007812 513.541992188 m 1
 145.833007812 29.1669921875 l 1
 145.833007812 513.541992188 l 1
 145.833007812 506.25 l 1
 145.833007812 547.916992188 l 1
 145.833007812 546.875 l 1
 145.833007812 570.833007812 l 1
 145.833007812 546.875 l 1
 145.833007812 547.395507812 l 1
 145.833007812 506.25 l 1
 145.833007812 513.541992188 l 1
EndSplineSet
Validated: 524293
EndChar

StartChar: P
Encoding: 80 80 18
Width: 1000
GlyphClass: 2
Flags: MW
HStem: 356.25 260.417
VStem: 166.668 260.416 572.918 260.416
LayerCount: 2
Fore
SplineSet
500.09375 210.416992188 m 0
 520.170898438 210.416992188 537.327148438 217.565429688 551.563476562 231.86328125 c 0
 565.799804688 246.16015625 572.91796875 263.34765625 572.91796875 283.42578125 c 0
 572.91796875 303.502929688 565.768554688 320.659179688 551.470703125 334.895507812 c 0
 537.173828125 349.131835938 519.986328125 356.25 499.908203125 356.25 c 0
 479.831054688 356.25 462.674804688 349.100585938 448.438476562 334.802734375 c 0
 434.202148438 320.505859375 427.083984375 303.318359375 427.083984375 283.240234375 c 0
 427.083984375 263.163085938 434.233398438 246.006835938 448.53125 231.770507812 c 0
 462.828125 217.534179688 480.015625 210.416992188 500.09375 210.416992188 c 0
500.521484375 -204.166992188 m 0
 496.0078125 -204.166992188 491.66796875 -203.47265625 487.500976562 -202.083007812 c 0
 483.333984375 -200.694335938 479.514648438 -198.611328125 476.04296875 -195.833007812 c 0
 372.571289062 -104.861328125 295.13671875 -20.5205078125 243.750976562 57.1767578125 c 0
 192.362304688 134.881835938 166.66796875 207.489257812 166.66796875 275 c 0
 166.66796875 379.166992188 200.174804688 462.15625 267.188476562 523.958007812 c 0
 334.202148438 585.760742188 411.802734375 616.666992188 500.000976562 616.666992188 c 0
 588.19921875 616.666992188 665.802734375 585.763671875 732.813476562 523.958007812 c 0
 799.82421875 462.153320312 833.333984375 379.166992188 833.333984375 275 c 0
 833.333984375 207.638671875 807.639648438 135.073242188 756.250976562 57.2919921875 c 0
 704.862304688 -20.4892578125 627.427734375 -104.864257812 523.958984375 -195.833007812 c 0
 520.487304688 -198.611328125 516.841796875 -200.694335938 513.021484375 -202.083007812 c 0
 509.202148438 -203.47265625 505.036132812 -204.166992188 500.521484375 -204.166992188 c 0
EndSplineSet
Validated: 524289
EndChar

StartChar: R
Encoding: 82 82 19
Width: 1000
GlyphClass: 2
Flags: MW
HStem: 268.75 62.5
LayerCount: 2
Fore
SplineSet
478.125 -10.4169921875 m 0
 472.569335938 -4.861328125 469.791992188 2.427734375 469.791992188 11.455078125 c 0
 469.791992188 20.4833984375 472.569335938 27.775390625 478.125 33.3310546875 c 2
 713.541992188 268.748046875 l 1
 197.916992188 268.748046875 l 2
 188.888671875 268.748046875 181.422851562 271.69921875 175.51953125 277.602539062 c 0
 169.6171875 283.504882812 166.666015625 290.969726562 166.666015625 299.998046875 c 0
 166.666015625 309.026367188 169.6171875 316.491210938 175.51953125 322.393554688 c 0
 181.422851562 328.296875 188.888671875 331.248046875 197.916992188 331.248046875 c 2
 713.541992188 331.248046875 l 1
 478.125 566.665039062 l 2
 472.569335938 572.220703125 469.791992188 579.685546875 469.791992188 589.060546875 c 0
 469.791992188 598.435546875 472.569335938 605.900390625 478.125 611.456054688 c 0
 483.680664062 617.01171875 490.97265625 619.790039062 500.000976562 619.790039062 c 0
 509.029296875 619.790039062 516.321289062 617.01171875 521.876953125 611.456054688 c 2
 811.459960938 321.873046875 l 2
 814.932617188 318.401367188 817.36328125 314.928710938 818.751953125 311.456054688 c 0
 820.140625 307.984375 820.834960938 304.165039062 820.834960938 299.998046875 c 0
 820.834960938 296.526367188 820.140625 292.880859375 818.751953125 289.061523438 c 0
 817.36328125 285.2421875 814.932617188 281.596679688 811.459960938 278.125 c 2
 521.876953125 -11.4580078125 l 2
 516.321289062 -17.013671875 509.029296875 -19.6181640625 500.000976562 -19.2705078125 c 0
 490.97265625 -18.923828125 483.680664062 -15.97265625 478.125 -10.4169921875 c 0
EndSplineSet
Validated: 524289
EndChar

StartChar: S
Encoding: 83 83 20
Width: 1000
GlyphClass: 2
Flags: W
LayerCount: 2
Fore
SplineSet
247.010742188 556.676757812 m 0
 247.720703125 556.861328125 248.893554688 557.009765625 249.627929688 557.009765625 c 0
 250.793945312 557.009765625 252.610351562 556.641601562 253.684570312 556.1875 c 2
 820.330078125 316.604492188 l 2
 823.840820312 315.119140625 826.689453125 310.821289062 826.689453125 307.009765625 c 0
 826.689453125 303.180664062 823.822265625 298.875 820.290039062 297.397460938 c 2
 253.643554688 60.9501953125 l 2
 252.586914062 60.51171875 250.80078125 60.1572265625 249.657226562 60.1572265625 c 0
 243.918945312 60.1572265625 239.251953125 64.814453125 239.239257812 70.552734375 c 2
 239.239257812 244.500976562 l 1
 239.239257812 244.510742188 l 2
 239.239257812 249.541992188 243.286132812 254.166992188 248.272460938 254.8359375 c 2
 640.772460938 307.163085938 l 1
 248.231445312 361.240234375 l 2
 243.267578125 361.92578125 239.23828125 366.548828125 239.23828125 371.559570312 c 2
 239.23828125 371.575195312 l 1
 239.23828125 546.5859375 l 1
 239.23828125 546.600585938 l 2
 239.23828125 551.036132812 242.720703125 555.55078125 247.010742188 556.676757812 c 0
EndSplineSet
Validated: 524289
EndChar

StartChar: U
Encoding: 85 85 21
Width: 1000
GlyphClass: 2
Flags: MW
VStem: 468.75 62.5
LayerCount: 2
Fore
SplineSet
500 -33.3330078125 m 0
 490.971679688 -33.3330078125 483.508789062 -30.3818359375 477.606445312 -24.4794921875 c 0
 471.703125 -18.576171875 468.751953125 -11.1103515625 468.751953125 -2.08203125 c 2
 468.751953125 514.583984375 l 1
 232.293945312 278.125976562 l 2
 226.043945312 271.875976562 218.751953125 268.750976562 210.418945312 268.750976562 c 0
 202.0859375 268.750976562 194.793945312 271.875976562 188.543945312 278.125976562 c 0
 182.293945312 284.375976562 179.168945312 291.66796875 179.168945312 300.000976562 c 0
 179.168945312 308.333984375 182.293945312 315.625976562 188.543945312 321.875976562 c 2
 478.126953125 611.458984375 l 2
 481.598632812 614.931640625 485.244140625 617.362304688 489.063476562 618.750976562 c 0
 492.8828125 620.139648438 496.528320312 620.833984375 500 620.833984375 c 0
 504.166992188 620.833984375 507.986328125 620.139648438 511.458007812 618.750976562 c 0
 514.930664062 617.362304688 518.403320312 614.931640625 521.875 611.458984375 c 2
 811.458007812 321.875976562 l 2
 817.708007812 315.625976562 820.833007812 308.333984375 820.833007812 300.000976562 c 0
 820.833007812 291.66796875 817.708007812 284.375976562 811.458007812 278.125976562 c 0
 805.208007812 271.875976562 797.916015625 268.750976562 789.583007812 268.750976562 c 0
 781.25 268.750976562 773.958007812 271.875976562 767.708007812 278.125976562 c 2
 531.25 514.583984375 l 1
 531.25 -2.08203125 l 2
 531.25 -11.1103515625 528.298828125 -18.576171875 522.395507812 -24.4794921875 c 0
 516.493164062 -30.3818359375 509.028320312 -33.3330078125 500 -33.3330078125 c 0
EndSplineSet
Validated: 524289
EndChar

StartChar: X
Encoding: 88 88 22
Width: 1000
GlyphClass: 2
Flags: MW
HStem: -89.208 51.4365 -12.0527 51.4346 150.833 171.459 390.874 34.2959 536.611 51.4395 613.77 51.4365
VStem: 267.332 51.4355 610.248 205.748 644.54 34.291 695.976 51.4375 747.415 34.2891
LayerCount: 2
Fore
SplineSet
639.395507812 150.833007812 m 2xff
 631.39453125 150.833007812 624.536132812 153.690429688 618.821289062 159.40625 c 0
 613.10546875 165.12109375 610.248046875 171.979492188 610.248046875 179.981445312 c 2
 610.248046875 293.147460938 l 2xff
 610.248046875 301.1484375 613.10546875 308.006835938 618.821289062 313.72265625 c 0
 624.536132812 319.438476562 631.39453125 322.295898438 639.395507812 322.295898438 c 2
 644.540039062 322.295898438 l 1
 644.540039062 356.586914062 l 2
 644.540039062 375.447265625 651.254882812 391.592773438 664.685546875 405.0234375 c 0
 678.116210938 418.454101562 694.26171875 425.169921875 713.122070312 425.169921875 c 0
 731.982421875 425.169921875 748.127929688 418.454101562 761.55859375 405.0234375 c 0
 774.989257812 391.592773438 781.704101562 375.447265625 781.704101562 356.586914062 c 2
 781.704101562 322.295898438 l 1xfea0
 786.84765625 322.295898438 l 2
 794.848632812 322.295898438 801.70703125 319.438476562 807.422851562 313.72265625 c 0
 813.138671875 308.0078125 815.99609375 301.149414062 815.99609375 293.147460938 c 2
 815.99609375 179.981445312 l 2
 815.99609375 171.98046875 813.138671875 165.122070312 807.422851562 159.40625 c 0
 801.70703125 153.690429688 794.848632812 150.833007812 786.84765625 150.833007812 c 2
 639.395507812 150.833007812 l 2xff
678.831054688 322.291992188 m 1xfea0
 747.415039062 322.291992188 l 1
 747.415039062 356.583007812 l 2
 747.415039062 366.298828125 744.12890625 374.443359375 737.555664062 381.015625 c 0
 730.983398438 387.587890625 722.83984375 390.874023438 713.124023438 390.874023438 c 0
 703.408203125 390.874023438 695.263671875 387.751953125 688.69140625 381.508789062 c 0
 682.118164062 375.264648438 678.83203125 367.52734375 678.83203125 358.296875 c 2
 678.831054688 322.291992188 l 1xfea0
318.768554688 -89.2080078125 m 2
 304.623046875 -89.2080078125 292.514648438 -84.171875 282.44140625 -74.0986328125 c 0
 272.368164062 -64.025390625 267.33203125 -51.9169921875 267.33203125 -37.771484375 c 2
 267.33203125 613.76953125 l 2
 267.33203125 627.915039062 272.368164062 640.0234375 282.44140625 650.096679688 c 0
 292.514648438 660.169921875 304.623046875 665.206054688 318.768554688 665.206054688 c 2
 695.977539062 665.206054688 l 2
 710.122070312 665.206054688 722.23046875 660.169921875 732.303710938 650.096679688 c 0
 742.376953125 640.0234375 747.413085938 627.915039062 747.413085938 613.76953125 c 2
 747.413085938 488.603515625 l 1
 695.975585938 488.603515625 l 1
 695.975585938 536.611328125 l 1
 318.767578125 536.611328125 l 1
 318.767578125 39.3818359375 l 1
 695.975585938 39.3818359375 l 1
 695.975585938 87.390625 l 1
 747.413085938 87.390625 l 1
 747.413085938 -37.7763671875 l 2xfe40
 747.413085938 -51.921875 742.376953125 -64.0302734375 732.303710938 -74.103515625 c 0
 722.23046875 -84.1767578125 710.122070312 -89.212890625 695.977539062 -89.212890625 c 2
 318.768554688 -89.2080078125 l 2
318.768554688 -12.052734375 m 1
 318.768554688 -37.771484375 l 1
 695.977539062 -37.771484375 l 1
 695.977539062 -12.052734375 l 1
 318.768554688 -12.052734375 l 1
318.768554688 588.05078125 m 1
 695.977539062 588.05078125 l 1
 695.977539062 613.76953125 l 1
 318.768554688 613.76953125 l 1
 318.768554688 588.05078125 l 1
318.768554688 588.05078125 m 1
 318.768554688 613.76953125 l 1
 318.768554688 588.05078125 l 1
318.768554688 -12.052734375 m 1
 318.768554688 -37.771484375 l 1
 318.768554688 -12.052734375 l 1
EndSplineSet
Validated: 524293
EndChar

StartChar: underscore
Encoding: 95 95 23
Width: 1000
GlyphClass: 2
Flags: MW
HStem: 267.708 62.5
LayerCount: 2
Fore
SplineSet
796.875 267.708007812 m 1
 156.249023438 267.706054688 l 2
 147.220703125 267.706054688 139.755859375 270.657226562 133.853515625 276.560546875 c 0
 127.950195312 282.463867188 124.999023438 289.928710938 124.999023438 298.956054688 c 0
 124.999023438 307.984375 127.950195312 315.450195312 133.853515625 321.353515625 c 0
 139.755859375 327.255859375 147.220703125 330.20703125 156.249023438 330.20703125 c 2
 797.916015625 330.20703125 l 1
 708.33203125 419.791015625 l 2
 702.776367188 425.346679688 699.999023438 432.291015625 699.999023438 440.624023438 c 0
 699.999023438 448.95703125 703.124023438 456.249023438 709.374023438 462.499023438 c 0
 715.624023438 468.749023438 722.916015625 471.874023438 731.249023438 471.874023438 c 0
 739.58203125 471.874023438 746.874023438 468.749023438 753.124023438 462.499023438 c 2
 894.791015625 320.83203125 l 2
 898.262695312 317.360351562 900.693359375 313.888671875 902.08203125 310.416992188 c 0
 903.471679688 306.944335938 904.166015625 303.125 904.166015625 298.958007812 c 0
 904.166015625 294.791015625 903.471679688 290.971679688 902.08203125 287.5 c 0
 900.693359375 284.028320312 898.262695312 280.555664062 894.791015625 277.083007812 c 2
 753.124023438 135.416992188 l 2
 746.1796875 128.47265625 738.71484375 125.173828125 730.729492188 125.520507812 c 0
 722.743164062 125.868164062 715.625 129.166992188 709.375 135.416992188 c 0
 703.125 141.666992188 700 149.131835938 700 157.8125 c 0
 700 166.493164062 702.77734375 173.611328125 708.333007812 179.166992188 c 2
 796.875 267.708007812 l 1
EndSplineSet
Validated: 524289
EndChar

StartChar: a
Encoding: 97 97 24
Width: 1000
GlyphClass: 2
Flags: MW
HStem: -43 62.5<485.156 812.5 489.583 812.5> 259.083 62.5 644.5 62.5<479.861 520.139>
VStem: 83.333 104.167 343.75 62.5<286.514 294.76 286.167 295.195> 593.75 62.5<286.514 294.76 286.167 295.195> 812.5 62.5<-43 19.5 19.5 91.375> 812.5 104.167
LayerCount: 2
Fore
SplineSet
489.583007812 -43 m 2xfe
 480.728515625 -43 473.306640625 -39.98828125 467.317382812 -33.9638671875 c 0
 461.328125 -27.9384765625 458.333007812 -20.47265625 458.333007812 -11.5673828125 c 0
 458.333007812 -2.6611328125 461.328125 4.7431640625 467.317382812 10.6455078125 c 0
 473.306640625 16.548828125 480.728515625 19.5 489.583007812 19.5 c 2
 812.5 19.5 l 1
 812.5 336.166992188 l 2
 812.5 376.444335938 803.819335938 415.159179688 786.458007812 452.3125 c 0
 769.09765625 489.465820312 745.833984375 522.278320312 716.666992188 550.75 c 0
 687.5 579.221679688 654.166992188 601.96484375 616.666992188 618.979492188 c 0
 579.166992188 635.993164062 540.278320312 644.5 500 644.5 c 0
 459.721679688 644.5 420.833007812 635.993164062 383.333007812 618.979492188 c 0
 345.833007812 601.96484375 312.5 579.221679688 283.333007812 550.75 c 0
 254.166015625 522.278320312 230.90234375 489.465820312 213.541992188 452.3125 c 0
 196.180664062 415.159179688 187.5 376.444335938 187.5 336.166992188 c 2
 187.5 102.833007812 l 2
 187.5 96.9306640625 185.50390625 91.982421875 181.510742188 87.9892578125 c 0
 177.517578125 83.99609375 172.569335938 82 166.666992188 82 c 0
 143.75 82 124.131835938 90.16015625 107.8125 106.479492188 c 0
 91.4931640625 122.798828125 83.3330078125 142.416015625 83.3330078125 165.333007812 c 2
 83.3330078125 248.666992188 l 2
 83.3330078125 264.638671875 87.15234375 278.701171875 94.7919921875 290.854492188 c 0
 102.430664062 303.006835938 112.5 312.90234375 125 320.541992188 c 1
 128.125 375.75 l 2
 134.375 426.444335938 148.78515625 472.278320312 171.354492188 513.25 c 0
 193.923828125 554.221679688 222.048828125 588.944335938 255.729492188 617.416992188 c 0
 289.41015625 645.888671875 327.256835938 667.9375 369.270507812 683.5625 c 0
 411.28515625 699.1875 454.861328125 707 500 707 c 0
 545.833007812 707 589.756835938 699.1875 631.770507812 683.5625 c 0
 673.78515625 667.9375 711.458984375 645.71484375 744.791992188 616.895507812 c 0
 778.125 588.076171875 806.076171875 553.354492188 828.645507812 512.729492188 c 0
 851.21484375 472.104492188 865.625 426.791992188 871.875 376.791992188 c 2
 875 322.625 l 1xfe
 887.5 316.375 897.569335938 307.173828125 905.208007812 295.020507812 c 0
 912.84765625 282.868164062 916.666992188 269.5 916.666992188 254.916992188 c 2
 916.666992188 159.083007812 l 2xfd
 916.666992188 143.805664062 912.84765625 130.263671875 905.208007812 118.458007812 c 0
 897.569335938 106.65234375 887.5 97.625 875 91.375 c 1
 875 19.5 l 2
 875 2.3125 868.879882812 -12.4013671875 856.640625 -24.640625 c 0
 844.401367188 -36.8798828125 829.6875 -43 812.5 -43 c 2
 489.583007812 -43 l 2xfe
375 259.083007812 m 0
 366.666992188 259.083007812 359.375 262.208007812 353.125 268.458007812 c 0
 346.875 274.708007812 343.75 282.173828125 343.75 290.854492188 c 0
 343.75 299.53515625 346.875 306.826171875 353.125 312.729492188 c 0
 359.375 318.631835938 366.83984375 321.583007812 375.520507812 321.583007812 c 0
 384.201171875 321.583007812 391.493164062 318.587890625 397.395507812 312.598632812 c 0
 403.298828125 306.609375 406.25 299.1875 406.25 290.333007812 c 0
 406.25 282 403.254882812 274.708007812 397.265625 268.458007812 c 0
 391.276367188 262.208007812 383.854492188 259.083007812 375 259.083007812 c 0
625 259.083007812 m 0
 616.666992188 259.083007812 609.375 262.208007812 603.125 268.458007812 c 0
 596.875 274.708007812 593.75 282.173828125 593.75 290.854492188 c 0
 593.75 299.53515625 596.875 306.826171875 603.125 312.729492188 c 0
 609.375 318.631835938 616.83984375 321.583007812 625.520507812 321.583007812 c 0
 634.201171875 321.583007812 641.493164062 318.587890625 647.395507812 312.598632812 c 0
 653.298828125 306.609375 656.25 299.1875 656.25 290.333007812 c 0
 656.25 282 653.254882812 274.708007812 647.265625 268.458007812 c 0
 641.276367188 262.208007812 633.854492188 259.083007812 625 259.083007812 c 0
251.041992188 313.25 m 1
 248.263671875 354.221679688 253.993164062 391.375 268.229492188 424.708007812 c 0
 282.46484375 458.041015625 301.5625 486.33984375 325.520507812 509.604492188 c 0
 349.478515625 532.868164062 377.083007812 550.75 408.333007812 563.25 c 0
 439.583007812 575.75 470.833007812 582 502.083007812 582 c 0
 565.27734375 582 618.40234375 562.03515625 661.458007812 522.104492188 c 0
 704.513671875 482.173828125 730.903320312 432.346679688 740.625 372.625 c 1
 675.346679688 373.319335938 617.881835938 390.854492188 568.229492188 425.229492188 c 0
 518.576171875 459.604492188 480.208007812 504.22265625 453.125 559.083007812 c 1
 442.013671875 502.833007812 418.576171875 453.006835938 382.8125 409.604492188 c 0
 347.048828125 366.201171875 303.125 334.083007812 251.041992188 313.25 c 1
EndSplineSet
Validated: 524321
EndChar

StartChar: b
Encoding: 98 98 25
Width: 1000
GlyphClass: 2
Flags: MW
HStem: 269.792 62.5
LayerCount: 2
Fore
SplineSet
352.083007812 75 m 2
 146.875 279.168945312 l 2
 143.403320312 282.640625 140.97265625 286.112304688 139.583007812 289.583984375 c 0
 138.194335938 293.056640625 137.5 296.875976562 137.5 301.04296875 c 0
 137.5 305.209960938 138.194335938 309.029296875 139.583007812 312.500976562 c 0
 140.97265625 315.97265625 143.403320312 319.4453125 146.875 322.91796875 c 2
 352.083007812 528.125976562 l 2
 357.638671875 533.681640625 364.930664062 536.6328125 373.958007812 536.98046875 c 0
 382.986328125 537.327148438 390.625 534.375976562 396.875 528.125976562 c 0
 403.125 521.875976562 406.25 514.411132812 406.25 505.73046875 c 0
 406.25 497.049804688 403.125 489.583984375 396.875 483.333984375 c 2
 245.833007812 332.29296875 l 1
 843.75 332.29296875 l 2
 852.778320312 332.29296875 860.243164062 329.341796875 866.145507812 323.438476562 c 0
 872.048828125 317.53515625 875 310.0703125 875 301.04296875 c 0
 875 292.014648438 872.048828125 284.548828125 866.145507812 278.645507812 c 0
 860.243164062 272.743164062 852.778320312 269.791992188 843.75 269.791992188 c 2
 245.833007812 269.791992188 l 1
 396.875 118.75 l 2
 402.430664062 113.194335938 405.381835938 106.076171875 405.729492188 97.3955078125 c 0
 406.076171875 88.71484375 403.125 81.25 396.875 75 c 0
 390.625 68.75 383.16015625 65.625 374.479492188 65.625 c 0
 365.798828125 65.625 358.333007812 68.75 352.083007812 75 c 2
EndSplineSet
Validated: 524289
EndChar

StartChar: c
Encoding: 99 99 26
Width: 1000
GlyphClass: 2
Flags: MW
HStem: -115.625 150<288.542 309.028 288.542 309.375 705.208 725.694> 101.042 62.5 271.875 362.5<337.5 653.125 337.5 337.5> 654.167 62.5
VStem: 223.958 150 640.625 150<-51.0415 -30.2085>
LayerCount: 2
Fore
SplineSet
298.958007812 -115.625 m 0
 278.125 -115.625 260.416992188 -108.333007812 245.833007812 -93.75 c 0
 231.25 -79.1669921875 223.958007812 -61.4580078125 223.958007812 -40.625 c 0
 223.958007812 -19.7919921875 231.25 -2.0830078125 245.833007812 12.5 c 0
 260.416992188 27.0830078125 278.125 34.375 298.958007812 34.375 c 0
 319.09765625 34.375 336.630859375 27.0830078125 351.5625 12.5 c 0
 366.494140625 -2.0830078125 373.958007812 -19.7919921875 373.958007812 -40.625 c 0
 373.958007812 -61.4580078125 366.666992188 -79.1669921875 352.083007812 -93.75 c 0
 337.5 -108.333007812 319.791992188 -115.625 298.958007812 -115.625 c 0
715.625 -115.625 m 0
 694.791992188 -115.625 677.083007812 -108.333007812 662.5 -93.75 c 0
 647.916992188 -79.1669921875 640.625 -61.4580078125 640.625 -40.625 c 0
 640.625 -19.7919921875 647.916992188 -2.0830078125 662.5 12.5 c 0
 677.083007812 27.0830078125 694.791992188 34.375 715.625 34.375 c 0
 735.763671875 34.375 753.297851562 27.0830078125 768.229492188 12.5 c 0
 783.16015625 -2.0830078125 790.625 -19.7919921875 790.625 -40.625 c 0
 790.625 -61.4580078125 783.333007812 -79.1669921875 768.75 -93.75 c 0
 754.166992188 -108.333007812 736.458007812 -115.625 715.625 -115.625 c 0
288.541992188 101.041992188 m 2
 259.375 101.041992188 238.369140625 110.763671875 225.520507812 130.208007812 c 0
 212.672851562 149.65234375 212.84765625 171.52734375 226.041992188 195.833007812 c 2
 292.708007812 318.75 l 1
 134.375 654.166992188 l 1
 83.3330078125 654.166992188 l 2
 75 654.166992188 67.8818359375 657.291992188 61.9794921875 663.541992188 c 0
 56.076171875 669.791992188 53.125 677.430664062 53.125 686.458007812 c 0
 53.125 694.791992188 56.076171875 701.91015625 61.9794921875 707.8125 c 0
 67.8818359375 713.71484375 75.34765625 716.666992188 84.375 716.666992188 c 2
 155.208007812 716.666992188 l 2
 161.458007812 716.666992188 167.013671875 715.104492188 171.875 711.979492188 c 0
 176.736328125 708.854492188 180.555664062 704.513671875 183.333007812 698.958007812 c 2
 213.541992188 634.375 l 1
 827.083007812 634.375 l 2
 849.306640625 634.375 863.369140625 627.604492188 869.270507812 614.0625 c 0
 875.172851562 600.520507812 873.263671875 585.416992188 863.541992188 568.75 c 2
 722.916992188 315.625 l 2
 715.97265625 303.819335938 706.25 293.577148438 693.75 284.895507812 c 0
 681.25 276.21484375 667.708007812 271.875 653.125 271.875 c 2
 337.5 271.875 l 1
 279.166992188 163.541992188 l 1
 760.416992188 163.541992188 l 2
 768.75 163.541992188 775.868164062 160.416992188 781.770507812 154.166992188 c 0
 787.673828125 147.916992188 790.625 140.625 790.625 132.291992188 c 0
 790.625 123.263671875 787.673828125 115.798828125 781.770507812 109.895507812 c 0
 775.868164062 103.993164062 768.40234375 101.041992188 759.375 101.041992188 c 2
 288.541992188 101.041992188 l 2
EndSplineSet
Validated: 524321
EndChar

StartChar: f
Encoding: 102 102 27
Width: 1000
GlyphClass: 2
Flags: MW
HStem: 10.417 62.5 268.75 62.5 527.083 62.5
VStem: 319.792 62.5 444.792 62.5 617.708 62.5
CounterMasks: 1 e0
LayerCount: 2
Fore
SplineSet
156.25 10.4169921875 m 2
 147.221679688 10.4169921875 139.756835938 13.3681640625 133.854492188 19.2705078125 c 0
 127.951171875 25.173828125 125 32.6396484375 125 41.66796875 c 0
 125 50.6953125 127.951171875 58.16015625 133.854492188 64.0634765625 c 0
 139.756835938 69.966796875 147.221679688 72.91796875 156.25 72.91796875 c 2
 351.041992188 72.91796875 l 2
 360.069335938 72.91796875 367.534179688 69.966796875 373.4375 64.0634765625 c 0
 379.340820312 58.16015625 382.291992188 50.6953125 382.291992188 41.66796875 c 0
 382.291992188 32.6396484375 379.340820312 25.173828125 373.4375 19.2705078125 c 0
 367.534179688 13.3681640625 360.069335938 10.4169921875 351.041992188 10.4169921875 c 2
 156.25 10.4169921875 l 2
156.25 527.083007812 m 2
 147.221679688 527.083007812 139.756835938 530.034179688 133.854492188 535.9375 c 0
 127.951171875 541.840820312 125 549.305664062 125 558.333007812 c 0
 125 567.361328125 127.951171875 574.827148438 133.854492188 580.73046875 c 0
 139.756835938 586.6328125 147.221679688 589.583984375 156.25 589.583984375 c 2
 523.958007812 589.583984375 l 2
 532.986328125 589.583984375 540.452148438 586.6328125 546.35546875 580.73046875 c 0
 552.2578125 574.827148438 555.208984375 567.361328125 555.208984375 558.333007812 c 0
 555.208984375 549.305664062 552.2578125 541.840820312 546.35546875 535.9375 c 0
 540.452148438 530.034179688 532.986328125 527.083007812 523.958007812 527.083007812 c 2
 156.25 527.083007812 l 2
476.041992188 -75 m 0
 467.013671875 -75 459.547851562 -72.0478515625 453.64453125 -66.14453125 c 0
 447.7421875 -60.2421875 444.791015625 -52.77734375 444.791015625 -43.7490234375 c 2
 444.791015625 128.125976562 l 2
 444.791015625 137.154296875 447.7421875 144.619140625 453.64453125 150.521484375 c 0
 459.547851562 156.424804688 467.013671875 159.375976562 476.041992188 159.375976562 c 0
 485.069335938 159.375976562 492.534179688 156.424804688 498.4375 150.521484375 c 0
 504.340820312 144.619140625 507.291992188 137.154296875 507.291992188 128.125976562 c 2
 507.291992188 72.91796875 l 1
 843.75 72.91796875 l 2
 852.778320312 72.91796875 860.243164062 69.966796875 866.145507812 64.0634765625 c 0
 872.048828125 58.16015625 875 50.6953125 875 41.66796875 c 0
 875 32.6396484375 872.048828125 25.173828125 866.145507812 19.2705078125 c 0
 860.243164062 13.3681640625 852.778320312 10.4169921875 843.75 10.4169921875 c 2
 507.291992188 10.4169921875 l 1
 507.291992188 -43.75 l 2
 507.291992188 -52.7783203125 504.340820312 -60.2431640625 498.4375 -66.1455078125 c 0
 492.534179688 -72.048828125 485.069335938 -75 476.041992188 -75 c 0
351.041992188 183.333984375 m 0
 342.013671875 183.333984375 334.547851562 186.28515625 328.64453125 192.188476562 c 0
 322.7421875 198.091796875 319.791015625 205.556640625 319.791015625 214.583984375 c 2
 319.791015625 268.750976562 l 1
 156.249023438 268.750976562 l 2
 147.220703125 268.750976562 139.755859375 271.702148438 133.853515625 277.60546875 c 0
 127.950195312 283.5078125 124.999023438 290.97265625 124.999023438 300.000976562 c 0
 124.999023438 309.029296875 127.950195312 316.494140625 133.853515625 322.396484375 c 0
 139.755859375 328.299804688 147.220703125 331.250976562 156.249023438 331.250976562 c 2
 319.791015625 331.250976562 l 1
 319.791015625 387.500976562 l 2
 319.791015625 396.529296875 322.7421875 403.994140625 328.64453125 409.896484375 c 0
 334.547851562 415.799804688 342.013671875 418.750976562 351.041992188 418.750976562 c 0
 360.069335938 418.750976562 367.534179688 415.799804688 373.4375 409.896484375 c 0
 379.340820312 403.994140625 382.291992188 396.529296875 382.291992188 387.500976562 c 2
 382.291992188 214.583984375 l 2
 382.291992188 205.556640625 379.340820312 198.091796875 373.4375 192.188476562 c 0
 367.534179688 186.28515625 360.069335938 183.333984375 351.041992188 183.333984375 c 0
476.041992188 268.750976562 m 2
 467.013671875 268.750976562 459.547851562 271.702148438 453.64453125 277.60546875 c 0
 447.7421875 283.5078125 444.791015625 290.97265625 444.791015625 300.000976562 c 0
 444.791015625 309.029296875 447.7421875 316.494140625 453.64453125 322.396484375 c 0
 459.547851562 328.299804688 467.013671875 331.250976562 476.041992188 331.250976562 c 2
 843.75 331.250976562 l 2
 852.778320312 331.250976562 860.243164062 328.299804688 866.145507812 322.396484375 c 0
 872.048828125 316.494140625 875 309.029296875 875 300.000976562 c 0
 875 290.97265625 872.048828125 283.5078125 866.145507812 277.60546875 c 0
 860.243164062 271.702148438 852.778320312 268.750976562 843.75 268.750976562 c 2
 476.041992188 268.750976562 l 2
648.958007812 440.625976562 m 0
 639.930664062 440.625976562 632.465820312 443.578125 626.5625 449.481445312 c 0
 620.659179688 455.383789062 617.708007812 462.848632812 617.708007812 471.876953125 c 2
 617.708007812 643.751953125 l 2
 617.708007812 652.780273438 620.659179688 660.245117188 626.5625 666.147460938 c 0
 632.465820312 672.05078125 639.930664062 675.001953125 648.958007812 675.001953125 c 0
 657.986328125 675.001953125 665.452148438 672.05078125 671.35546875 666.147460938 c 0
 677.2578125 660.245117188 680.208984375 652.780273438 680.208984375 643.751953125 c 2
 680.208984375 589.584960938 l 1
 843.750976562 589.584960938 l 2
 852.779296875 589.584960938 860.244140625 586.633789062 866.146484375 580.731445312 c 0
 872.049804688 574.828125 875.000976562 567.362304688 875.000976562 558.333984375 c 0
 875.000976562 549.306640625 872.049804688 541.841796875 866.146484375 535.938476562 c 0
 860.244140625 530.03515625 852.779296875 527.083984375 843.750976562 527.083984375 c 2
 680.208984375 527.083984375 l 1
 680.208984375 471.875976562 l 2
 680.208984375 462.84765625 677.2578125 455.3828125 671.35546875 449.48046875 c 0
 665.452148438 443.577148438 657.986328125 440.625976562 648.958007812 440.625976562 c 0
EndSplineSet
Validated: 524289
EndChar

StartChar: h
Encoding: 104 104 28
Width: 1000
GlyphClass: 2
Flags: MW
VStem: 208.329 218.75 572.912 218.75
LayerCount: 2
Fore
SplineSet
500 664.583007812 m 0
 508.333007812 664.583007812 515.268554688 661.797851562 520.82421875 656.2421875 c 2
 886.469726562 327.095703125 l 2
 892.025390625 322.235351562 893.580078125 316.481445312 891.149414062 309.883789062 c 0
 888.71875 303.287109375 883.692382812 299.99609375 876.053710938 299.99609375 c 2
 791.662109375 299.99609375 l 1
 791.662109375 -2.0869140625 l 2
 791.662109375 -11.1142578125 788.694335938 -18.5634765625 782.791015625 -24.4658203125 c 0
 776.888671875 -30.369140625 769.439453125 -33.3369140625 760.412109375 -33.3369140625 c 2
 572.912109375 -33.3369140625 l 1
 572.912109375 216.663085938 l 1
 427.079101562 216.663085938 l 1
 427.079101562 -33.3369140625 l 1
 239.579101562 -33.3369140625 l 2
 230.551757812 -33.3369140625 223.102539062 -30.369140625 217.19921875 -24.4658203125 c 0
 211.296875 -18.5634765625 208.329101562 -11.1142578125 208.329101562 -2.0869140625 c 2
 208.329101562 299.99609375 l 1
 123.9375 299.99609375 l 2
 116.993164062 299.99609375 112.1484375 303.287109375 109.370117188 309.883789062 c 0
 106.592773438 316.481445312 107.96484375 322.235351562 113.520507812 327.095703125 c 2
 479.166992188 656.2421875 l 2
 484.72265625 661.797851562 491.666992188 664.583007812 500 664.583007812 c 0
EndSplineSet
Validated: 524289
EndChar

StartChar: i
Encoding: 105 105 29
Width: 1000
GlyphClass: 2
Flags: MW
HStem: -111.584 62.498<471.555 500.282> 423.833 68.75<498.383 504.891 495.157 508.117> 659.25 62.5<471.765 529.279 471.765 549.439>
VStem: 83.334 62.5029<276.847 334.361> 465.63 68.75<452.444 462.184> 854.172 62.4961<276.639 334.09 276.639 354.736>
LayerCount: 2
Fore
SplineSet
503.3125 96.75 m 0
 494.407226562 96.75 486.94140625 99.7451171875 480.916992188 105.734375 c 0
 474.892578125 111.723632812 471.879882812 119.145507812 471.879882812 128 c 2
 471.879882812 315.5 l 2
 471.879882812 324.354492188 474.831054688 331.776367188 480.734375 337.765625 c 0
 486.637695312 343.754882812 494.041992188 346.75 502.948242188 346.75 c 0
 511.853515625 346.75 519.319335938 343.754882812 525.34375 337.765625 c 0
 531.368164062 331.776367188 534.379882812 324.354492188 534.379882812 315.5 c 2
 534.379882812 128 l 2
 534.379882812 119.145507812 531.428710938 111.723632812 525.526367188 105.734375 c 0
 519.623046875 99.7451171875 512.21875 96.75 503.3125 96.75 c 0
499.986328125 423.833007812 m 0
 496.779296875 423.833007812 482.092773438 427.02734375 475.506835938 433.416015625 c 0
 468.921875 439.805664062 465.629882812 447.721679688 465.629882812 457.166015625 c 0
 465.629882812 467.201171875 468.928710938 475.612304688 475.526367188 482.400390625 c 0
 482.123046875 489.188476562 490.2890625 492.583007812 500.024414062 492.583007812 c 0
 509.7578125 492.583007812 517.91796875 489.188476562 524.502929688 482.400390625 c 0
 531.087890625 475.612304688 534.379882812 467.201171875 534.379882812 457.166015625 c 0
 534.379882812 447.721679688 531.081054688 439.805664062 524.484375 433.416015625 c 0
 517.887695312 427.02734375 516.248046875 423.833007812 499.986328125 423.833007812 c 0
500.282226562 -111.583984375 m 1
 442.828125 -111.583984375 388.834960938 -100.646484375 338.302734375 -78.771484375 c 0
 287.770507812 -56.896484375 243.580078125 -27.03515625 205.73046875 10.8125 c 0
 167.8828125 48.6591796875 138.021484375 92.875 116.146484375 143.458007812 c 0
 94.271484375 194.041015625 83.333984375 248.08984375 83.333984375 305.603515625 c 0
 83.333984375 363.118164062 94.271484375 417.166992188 116.146484375 467.75 c 0
 138.021484375 518.333984375 167.8828125 562.375976562 205.73046875 599.875 c 0
 243.577148438 637.374023438 287.79296875 667.061523438 338.375976562 688.9375 c 0
 388.958984375 710.8125 443.0078125 721.75 500.521484375 721.75 c 0
 558.036132812 721.75 612.084960938 710.8125 662.66796875 688.9375 c 0
 713.251953125 667.0625 757.293945312 637.375 794.79296875 599.875 c 0
 832.291992188 562.375 861.979492188 518.27734375 883.85546875 467.583007812 c 0
 905.73046875 416.888671875 916.66796875 362.815429688 916.66796875 305.364257812 c 0
 916.66796875 247.913085938 905.73046875 193.919921875 883.85546875 143.384765625 c 0
 861.98046875 92.8505859375 832.29296875 48.7255859375 794.79296875 11.009765625 c 0
 757.29296875 -26.7099609375 713.1953125 -56.5703125 662.500976562 -78.5732421875 c 0
 611.806640625 -100.576171875 557.733398438 -111.577148438 500.282226562 -111.577148438 c 1
 500.282226562 -111.583984375 l 1
500.526367188 -49.083984375 m 1
 598.790039062 -49.083984375 682.296875 -14.53515625 751.046875 54.5625 c 0
 819.796875 123.659179688 854.171875 207.33984375 854.171875 305.603515625 c 0
 854.171875 403.868164062 819.862304688 487.375 751.243164062 556.125 c 0
 682.623046875 624.875 598.875976562 659.25 500.002929688 659.25 c 0
 402.0859375 659.25 318.579101562 624.940429688 249.482421875 556.3203125 c 0
 180.385742188 487.700195312 145.836914062 403.954101562 145.836914062 305.081054688 c 0
 145.836914062 207.1640625 180.385742188 123.657226562 249.482421875 54.560546875 c 0
 318.579101562 -14.537109375 402.259765625 -49.0859375 500.524414062 -49.0859375 c 1
 500.526367188 -49.083984375 l 1
EndSplineSet
Validated: 524289
EndChar

StartChar: l
Encoding: 108 108 30
Width: 1000
GlyphClass: 2
Flags: MW
HStem: -116.667 208.334 252.083 208.334 695.833 62.5
VStem: 166.667 253.125 302.083 62.5 580.208 253.125 635.417 62.5
LayerCount: 2
Fore
SplineSet
229.166992188 -116.666992188 m 2xe4
 211.805664062 -116.666992188 197.047851562 -110.58984375 184.895507812 -98.4375 c 0
 172.744140625 -86.28515625 166.666992188 -71.52734375 166.666992188 -54.1669921875 c 2
 166.666992188 397.916992188 l 2xf4
 166.666992188 415.27734375 172.743164062 430.03515625 184.895507812 442.1875 c 0
 197.048828125 454.33984375 211.806640625 460.416992188 229.166992188 460.416992188 c 2
 302.083007812 460.416992188 l 1
 302.083007812 560.416992188 l 2
 302.083007812 615.27734375 321.354492188 661.979492188 359.895507812 700.520507812 c 0
 398.4375 739.0625 445.139648438 758.333007812 500 758.333007812 c 0
 554.860351562 758.333007812 601.5625 739.0625 640.104492188 700.520507812 c 0
 678.645507812 661.979492188 697.916992188 615.27734375 697.916992188 560.416992188 c 2
 697.916992188 460.416992188 l 1xea
 770.833007812 460.416992188 l 2
 788.194335938 460.416992188 802.952148438 454.33984375 815.104492188 442.1875 c 0
 827.255859375 430.03515625 833.333007812 415.27734375 833.333007812 397.916992188 c 2
 833.333007812 -54.1669921875 l 2
 833.333007812 -71.52734375 827.256835938 -86.28515625 815.104492188 -98.4375 c 0
 802.951171875 -110.58984375 788.193359375 -116.666992188 770.833007812 -116.666992188 c 2
 229.166992188 -116.666992188 l 2xe4
500 91.6669921875 m 0
 522.22265625 91.6669921875 541.145507812 99.3056640625 556.770507812 114.583007812 c 0
 572.395507812 129.861328125 580.208007812 148.264648438 580.208007812 169.791992188 c 0
 580.208007812 190.625 572.395507812 209.547851562 556.770507812 226.5625 c 0
 541.145507812 243.577148438 522.22265625 252.083007812 500 252.083007812 c 0
 477.77734375 252.083007812 458.854492188 243.576171875 443.229492188 226.5625 c 0
 427.604492188 209.548828125 419.791992188 190.625 419.791992188 169.791992188 c 0
 419.791992188 148.264648438 427.604492188 129.860351562 443.229492188 114.583007812 c 0
 458.854492188 99.306640625 477.77734375 91.6669921875 500 91.6669921875 c 0
364.583007812 460.416992188 m 1xea
 635.416992188 460.416992188 l 1
 635.416992188 560.416992188 l 2
 635.416992188 597.916992188 622.22265625 629.860351562 595.833007812 656.25 c 0
 569.444335938 682.639648438 537.5 695.833007812 500 695.833007812 c 0
 462.5 695.833007812 430.556640625 682.638671875 404.166992188 656.25 c 0
 377.77734375 629.861328125 364.583007812 597.916992188 364.583007812 560.416992188 c 2
 364.583007812 460.416992188 l 1xea
EndSplineSet
Validated: 524289
EndChar

StartChar: m
Encoding: 109 109 31
Width: 991
GlyphClass: 2
Flags: HMWO
HStem: 50 62.5<143.736 835.75 148.25 835.75> 268.75 62.5<143.736 835.75 148.25 835.75> 487.5 62.5<143.736 835.75 148.25 835.75>
CounterMasks: 1 e0
LayerCount: 2
Fore
SplineSet
140.596679688 643.755859375 m 0
 859.2265625 643.755859375 l 2
 893.858398438 643.755859375 921.73046875 615.883789062 921.73046875 581.251953125 c 0
 921.73046875 546.619140625 893.858398438 518.748046875 859.2265625 518.748046875 c 2
 140.596679688 518.748046875 l 2
 105.963867188 518.748046875 78.0927734375 546.619140625 78.0927734375 581.251953125 c 0
 78.0927734375 615.883789062 105.963867188 643.755859375 140.596679688 643.755859375 c 0
140.596679688 362.533203125 m 0
 859.2265625 362.533203125 l 2
 893.858398438 362.533203125 921.73046875 334.662109375 921.73046875 300.029296875 c 0
 921.73046875 265.397460938 893.858398438 237.525390625 859.2265625 237.525390625 c 2
 140.596679688 237.525390625 l 2
 105.963867188 237.525390625 78.0927734375 265.397460938 78.0927734375 300.029296875 c 0
 78.0927734375 334.662109375 105.963867188 362.533203125 140.596679688 362.533203125 c 0
142.534179688 81.310546875 m 2
 861.1640625 81.310546875 l 2
 895.796875 81.310546875 923.66796875 53.439453125 923.66796875 18.8076171875 c 0
 923.66796875 -15.8251953125 895.796875 -43.6962890625 861.1640625 -43.6962890625 c 2
 142.534179688 -43.6962890625 l 2
 107.901367188 -43.6962890625 80.0302734375 -15.8251953125 80.0302734375 18.8076171875 c 0
 80.0302734375 53.439453125 107.901367188 81.310546875 142.534179688 81.310546875 c 2
EndSplineSet
Validated: 524289
EndChar

StartChar: n
Encoding: 110 110 32
Width: 1000
GlyphClass: 2
Flags: MW
HStem: 242.333 208.334 554.833 125
VStem: 104.167 125 312.5 166.667
LayerCount: 2
Fore
SplineSet
500 -111.833007812 m 0
 445.138671875 -111.833007812 393.75 -101.416015625 345.833007812 -80.5830078125 c 0
 297.916015625 -59.75 256.076171875 -31.451171875 220.3125 4.3125 c 0
 184.548828125 40.076171875 156.25 81.916015625 135.416992188 129.833007812 c 0
 114.583984375 177.75 104.166992188 229.138671875 104.166992188 284 c 0
 104.166992188 338.861328125 114.583984375 390.25 135.416992188 438.166992188 c 0
 156.25 486.083984375 184.548828125 527.923828125 220.3125 563.6875 c 0
 256.076171875 599.451171875 297.916015625 627.75 345.833007812 648.583007812 c 0
 393.75 669.416015625 445.138671875 679.833007812 500 679.833007812 c 1
 500 746.5 l 2
 500 753.444335938 503.125 758.305664062 509.375 761.083007812 c 0
 515.625 763.861328125 521.52734375 762.47265625 527.083007812 756.916992188 c 2
 655.208007812 628.791992188 l 2
 658.680664062 625.319335938 660.416992188 621.5 660.416992188 617.333007812 c 0
 660.416992188 613.166015625 658.680664062 609.346679688 655.208007812 605.875 c 2
 527.083007812 477.75 l 2
 521.52734375 472.194335938 515.625 470.805664062 509.375 473.583007812 c 0
 503.125 476.361328125 500 481.22265625 500 488.166992188 c 2
 500 554.833007812 l 1
 425 554.833007812 361.111328125 528.444335938 308.333007812 475.666992188 c 0
 255.555664062 422.888671875 229.166992188 359 229.166992188 284 c 0
 229.166992188 238.166992188 239.756835938 195.631835938 260.9375 156.395507812 c 0
 282.118164062 117.16015625 310.416015625 85.388671875 345.833007812 61.0830078125 c 1
 356.944335938 80.52734375 373.4375 97.0205078125 395.3125 110.5625 c 0
 417.1875 124.104492188 442.361328125 132.611328125 470.833007812 136.083007812 c 1
 468.75 150.666015625 465.971679688 165.25 462.5 179.833007812 c 0
 459.028320312 194.416015625 454.861328125 207.958007812 450 220.458007812 c 1
 442.361328125 214.208007812 434.028320312 209.346679688 425 205.875 c 0
 415.971679688 202.403320312 406.25 200.666992188 395.833007812 200.666992188 c 0
 372.916015625 200.666992188 353.298828125 208.826171875 336.979492188 225.145507812 c 0
 320.66015625 241.46484375 312.5 261.083007812 312.5 284 c 2
 312.5 325.666992188 l 2
 312.5 332.611328125 311.979492188 339.208007812 310.9375 345.458007812 c 0
 309.895507812 351.708007812 307.986328125 357.958007812 305.208007812 364.208007812 c 0
 301.736328125 371.84765625 301.388671875 377.923828125 304.166992188 382.4375 c 0
 306.944335938 386.951171875 311.805664062 388.861328125 318.75 388.166992188 c 0
 331.944335938 387.47265625 347.569335938 385.736328125 365.625 382.958007812 c 0
 383.680664062 380.180664062 401.041015625 374.97265625 417.708007812 367.333007812 c 0
 434.375 359.694335938 448.611328125 349.27734375 460.416992188 336.083007812 c 0
 472.22265625 322.888671875 478.47265625 305.528320312 479.166992188 284 c 0
 479.166992188 277.75 478.646484375 272.020507812 477.604492188 266.8125 c 0
 476.5625 261.604492188 474.653320312 256.22265625 471.875 250.666992188 c 1
 462.846679688 257.611328125 453.819335938 263.861328125 444.791992188 269.416992188 c 0
 435.763671875 274.97265625 426.388671875 279.833007812 416.666992188 284 c 1
 428.47265625 274.971679688 442.013671875 261.083007812 457.291992188 242.333007812 c 0
 472.569335938 223.583007812 486.805664062 201.361328125 500 175.666992188 c 1
 513.888671875 209.694335938 531.25 243.201171875 552.083007812 276.1875 c 0
 572.916015625 309.173828125 597.221679688 339.555664062 625 367.333007812 c 1
 609.028320312 356.22265625 593.75 344.416992188 579.166992188 331.916992188 c 0
 564.583984375 319.416992188 550.34765625 306.22265625 536.458007812 292.333007812 c 1
 531.59765625 299.97265625 527.778320312 308.479492188 525 317.854492188 c 0
 522.221679688 327.229492188 520.833007812 336.778320312 520.833007812 346.5 c 0
 520.833007812 375.666992188 530.90234375 400.319335938 551.041992188 420.458007812 c 0
 571.180664062 440.59765625 595.833007812 450.666992188 625 450.666992188 c 2
 666.666992188 450.666992188 l 2
 680.555664062 450.666992188 692.361328125 451.881835938 702.083007812 454.3125 c 0
 711.805664062 456.743164062 720.486328125 461.430664062 728.125 468.375 c 0
 734.375 473.930664062 739.756835938 475.83984375 744.270507812 474.104492188 c 0
 748.78515625 472.368164062 751.041992188 467.680664062 751.041992188 460.041992188 c 0
 751.041992188 443.375 749.826171875 422.541992188 747.395507812 397.541992188 c 0
 744.96484375 372.541992188 739.41015625 348.583984375 730.729492188 325.666992188 c 0
 722.048828125 302.75 709.375 283.131835938 692.708007812 266.8125 c 0
 676.041015625 250.493164062 653.471679688 242.333007812 625 242.333007812 c 0
 614.583007812 242.333007812 604.6875 243.721679688 595.3125 246.5 c 0
 585.9375 249.278320312 577.430664062 253.09765625 569.791992188 257.958007812 c 1
 564.930664062 244.763671875 559.375 227.229492188 553.125 205.354492188 c 0
 546.875 183.479492188 542.013671875 160.041992188 538.541992188 135.041992188 c 1
 564.930664062 130.180664062 588.194335938 121.15234375 608.333007812 107.958007812 c 0
 628.47265625 94.763671875 643.75 79.138671875 654.166992188 61.0830078125 c 1
 686.805664062 84 713.368164062 113.166015625 733.854492188 148.583007812 c 0
 754.33984375 184 766.319335938 222.888671875 769.791992188 265.25 c 0
 770.486328125 270.805664062 772.569335938 275.319335938 776.041992188 278.791992188 c 0
 779.513671875 282.263671875 784.02734375 284 789.583007812 284 c 2
 877.083007812 284 l 2
 882.638671875 284 887.153320312 282.263671875 890.625 278.791992188 c 0
 894.096679688 275.319335938 895.833007812 270.805664062 895.833007812 265.25 c 0
 893.055664062 213.166992188 880.903320312 164.208007812 859.375 118.375 c 0
 837.846679688 72.5419921875 809.375 32.611328125 773.958007812 -1.4169921875 c 0
 738.541015625 -35.4443359375 697.395507812 -62.353515625 650.520507812 -82.1455078125 c 0
 603.645507812 -101.9375 553.471679688 -111.833007812 500 -111.833007812 c 0
EndSplineSet
Validated: 524289
EndChar

StartChar: o
Encoding: 111 111 33
Width: 1000
GlyphClass: 2
Flags: MW
HStem: 50 62.5<151.736 343.75 156.25 343.75> 268.75 62.5<151.736 593.75 156.25 593.75> 487.5 62.5<151.736 843.75 156.25 843.75>
CounterMasks: 1 e0
LayerCount: 2
Fore
SplineSet
343.75 50 m 2
 156.25 50 l 2
 147.221679688 50 139.756835938 52.951171875 133.854492188 58.8544921875 c 0
 127.951171875 64.7568359375 125 72.2216796875 125 81.25 c 0
 125 90.2783203125 127.951171875 97.7431640625 133.854492188 103.645507812 c 0
 139.756835938 109.548828125 147.221679688 112.5 156.25 112.5 c 2
 343.75 112.5 l 2
 352.778320312 112.5 360.243164062 109.548828125 366.145507812 103.645507812 c 0
 372.048828125 97.7431640625 375 90.2783203125 375 81.25 c 0
 375 72.2216796875 372.048828125 64.7568359375 366.145507812 58.8544921875 c 0
 360.243164062 52.951171875 352.778320312 50 343.75 50 c 2
843.75 487.5 m 2
 156.25 487.5 l 2
 147.221679688 487.5 139.756835938 490.451171875 133.854492188 496.354492188 c 0
 127.951171875 502.256835938 125 509.721679688 125 518.75 c 0
 125 527.778320312 127.951171875 535.243164062 133.854492188 541.145507812 c 0
 139.756835938 547.048828125 147.221679688 550 156.25 550 c 2
 843.75 550 l 2
 852.778320312 550 860.243164062 547.048828125 866.145507812 541.145507812 c 0
 872.048828125 535.243164062 875 527.778320312 875 518.75 c 0
 875 509.721679688 872.048828125 502.256835938 866.145507812 496.354492188 c 0
 860.243164062 490.451171875 852.778320312 487.5 843.75 487.5 c 2
593.75 268.75 m 2
 156.25 268.75 l 2
 147.221679688 268.75 139.756835938 271.701171875 133.854492188 277.604492188 c 0
 127.951171875 283.506835938 125 290.971679688 125 300 c 0
 125 309.028320312 127.951171875 316.493164062 133.854492188 322.395507812 c 0
 139.756835938 328.298828125 147.221679688 331.25 156.25 331.25 c 2
 593.75 331.25 l 2
 602.778320312 331.25 610.243164062 328.298828125 616.145507812 322.395507812 c 0
 622.048828125 316.493164062 625 309.028320312 625 300 c 0
 625 290.971679688 622.048828125 283.506835938 616.145507812 277.604492188 c 0
 610.243164062 271.701171875 602.778320312 268.75 593.75 268.75 c 2
EndSplineSet
Validated: 524289
EndChar

StartChar: p
Encoding: 112 112 34
Width: 1000
GlyphClass: 2
Flags: W
LayerCount: 2
Fore
SplineSet
381.25 41.6669921875 m 2
 370.833007812 34.72265625 360.244140625 34.375 349.479492188 40.625 c 0
 338.71484375 46.875 333.333007812 56.25 333.333007812 68.75 c 2
 333.333007812 537.5 l 2
 333.333007812 550 338.71484375 559.375 349.479492188 565.625 c 0
 360.243164062 571.875 370.833007812 571.52734375 381.25 564.583007812 c 2
 750 329.166992188 l 2
 759.72265625 322.916992188 764.583007812 314.236328125 764.583007812 303.125 c 0
 764.583007812 292.013671875 759.72265625 283.333007812 750 277.083007812 c 2
 381.25 41.6669921875 l 2
EndSplineSet
Validated: 524321
EndChar

StartChar: q
Encoding: 113 113 35
Width: 1000
GlyphClass: 2
Flags: MW
HStem: -40.542 20G 43 62.5<484.722 515.278> 647.167 62.5
VStem: 166.667 62.5 254.167 62.5 683.333 62.5 770.833 62.5
LayerCount: 2
Fore
SplineSet
439.583007812 251.333007812 m 2
 434.02734375 246.47265625 428.125 246.125 421.875 250.291992188 c 0
 415.625 254.458984375 413.541992188 260.361328125 415.625 268 c 2
 438.541992188 341.958007812 l 1
 375 390.916992188 l 2
 369.444335938 395.77734375 367.881835938 401.680664062 370.3125 408.625 c 0
 372.743164062 415.569335938 377.77734375 419.041992188 385.416992188 419.041992188 c 2
 460.416992188 419.041992188 l 1
 485.416992188 496.125 l 2
 488.194335938 503.763671875 493.228515625 507.583007812 500.520507812 507.583007812 c 0
 507.8125 507.583007812 512.5 503.763671875 514.583007812 496.125 c 2
 538.541992188 419.041992188 l 1
 614.583007812 419.041992188 l 2
 622.22265625 419.041992188 627.256835938 415.569335938 629.6875 408.625 c 0
 632.118164062 401.680664062 630.555664062 395.77734375 625 390.916992188 c 2
 561.458007812 341.958007812 l 1
 584.375 268 l 2
 586.458007812 260.361328125 584.375 254.458984375 578.125 250.291992188 c 0
 571.875 246.125 565.625 246.47265625 559.375 251.333007812 c 2
 500 296.125 l 1
 439.583007812 251.333007812 l 2
295.833007812 -151.791992188 m 2
 286.111328125 -155.263671875 276.736328125 -153.875 267.708007812 -147.625 c 0
 258.680664062 -141.375 254.166992188 -132.694335938 254.166992188 -121.583007812 c 2
 254.166992188 151.333007812 l 1
 222.916992188 183.97265625 200.521484375 219.736328125 186.979492188 258.625 c 0
 173.4375 297.513671875 166.666992188 336.75 166.666992188 376.333007812 c 0
 166.666992188 470.77734375 198.611328125 549.944335938 262.5 613.833007812 c 0
 326.388671875 677.72265625 405.555664062 709.666992188 500 709.666992188 c 0
 594.444335938 709.666992188 673.611328125 677.72265625 737.5 613.833007812 c 0
 801.388671875 549.944335938 833.333007812 470.77734375 833.333007812 376.333007812 c 0
 833.333007812 336.75 826.5625 297.513671875 813.020507812 258.625 c 0
 799.478515625 219.736328125 777.083007812 183.97265625 745.833007812 151.333007812 c 1
 745.833007812 -121.583007812 l 2
 745.833007812 -132.694335938 741.319335938 -141.375 732.291992188 -147.625 c 0
 723.263671875 -153.875 713.888671875 -155.263671875 704.166992188 -151.791992188 c 2
 500 -83.0419921875 l 1
 295.833007812 -151.791992188 l 2
500 105.5 m 0
 575.694335938 105.5 639.756835938 131.71484375 692.1875 184.145507812 c 0
 744.618164062 236.576171875 770.833007812 300.638671875 770.833007812 376.333007812 c 0
 770.833007812 452.02734375 744.618164062 516.08984375 692.1875 568.520507812 c 0
 639.756835938 620.951171875 575.694335938 647.166992188 500 647.166992188 c 0
 424.305664062 647.166992188 360.243164062 620.951171875 307.8125 568.520507812 c 0
 255.381835938 516.08984375 229.166992188 452.02734375 229.166992188 376.333007812 c 0
 229.166992188 300.638671875 255.381835938 236.576171875 307.8125 184.145507812 c 0
 360.243164062 131.71484375 424.305664062 105.5 500 105.5 c 0
316.666992188 -77.8330078125 m 1
 500 -20.5419921875 l 1
 683.333007812 -77.8330078125 l 1
 683.333007812 100.291992188 l 1
 655.555664062 80.15234375 625.694335938 65.5693359375 593.75 56.5419921875 c 0
 561.805664062 47.513671875 530.555664062 43 500 43 c 0
 469.444335938 43 438.194335938 47.513671875 406.25 56.5419921875 c 0
 374.305664062 65.5693359375 344.444335938 80.15234375 316.666992188 100.291992188 c 1
 316.666992188 -77.8330078125 l 1
500 11.75 m 1024
EndSplineSet
Validated: 524289
EndChar

StartChar: s
Encoding: 115 115 36
Width: 1000
GlyphClass: 2
Flags: MW
HStem: 142.708 62.5 613.542 62.5
VStem: 125 62.5 595.833 62.5
LayerCount: 2
Fore
SplineSet
806.25 -51.0419921875 m 2
 555.20703125 200.000976562 l 1
 534.374023438 181.9453125 510.068359375 167.8828125 482.291015625 157.813476562 c 0
 454.512695312 147.744140625 424.999023438 142.708984375 393.749023438 142.708984375 c 0
 318.749023438 142.708984375 255.20703125 168.750976562 203.124023438 220.833984375 c 0
 151.041015625 272.916992188 124.999023438 335.764648438 124.999023438 409.375976562 c 0
 124.999023438 482.987304688 151.041015625 545.834960938 203.124023438 597.91796875 c 0
 255.20703125 650.000976562 318.401367188 676.04296875 392.70703125 676.04296875 c 0
 466.318359375 676.04296875 528.9921875 650.000976562 580.728515625 597.91796875 c 0
 632.463867188 545.834960938 658.33203125 482.987304688 658.33203125 409.375976562 c 0
 658.33203125 379.514648438 653.470703125 350.6953125 643.749023438 322.91796875 c 0
 634.02734375 295.139648438 619.444335938 269.09765625 600 244.791992188 c 1
 853.125 -6.25 l 2
 859.375 -11.8056640625 862.5 -18.923828125 862.5 -27.6044921875 c 0
 862.5 -36.28515625 859.02734375 -44.09765625 852.083007812 -51.0419921875 c 0
 845.833007812 -57.2919921875 838.194335938 -60.4169921875 829.166992188 -60.4169921875 c 0
 820.138671875 -60.4169921875 812.5 -57.2919921875 806.25 -51.0419921875 c 2
392.70703125 205.208984375 m 0
 448.95703125 205.208984375 496.874023438 225.174804688 536.45703125 265.10546875 c 0
 576.040039062 305.036132812 595.83203125 353.125976562 595.83203125 409.375976562 c 0
 595.83203125 465.625976562 576.040039062 513.715820312 536.45703125 553.646484375 c 0
 496.874023438 593.577148438 448.95703125 613.54296875 392.70703125 613.54296875 c 0
 335.762695312 613.54296875 287.325195312 593.577148438 247.39453125 553.646484375 c 0
 207.463867188 513.715820312 187.499023438 465.625976562 187.499023438 409.375976562 c 0
 187.499023438 353.125976562 207.463867188 305.036132812 247.39453125 265.10546875 c 0
 287.325195312 225.174804688 335.762695312 205.208984375 392.70703125 205.208984375 c 0
EndSplineSet
Validated: 524289
EndChar

StartChar: t
Encoding: 116 116 37
Width: 1000
GlyphClass: 2
Flags: MW
HStem: -75 62.5<209.375 271.875 271.875 728.125> 581.25 62.5<193.403 362.5 197.917 209.375 271.875 271.875 271.875 362.5 637.5 728.125 271.875 271.875 790.625 790.625 790.625 802.083> 581.25 93.75<393.75 606.25 606.25 610.764 393.75 728.125>
VStem: 209.375 62.5<-12.5 581.25> 382.292 62.5 555.208 62.5 728.125 62.5<-75 -12.5 -12.5 581.25>
LayerCount: 2
Fore
SplineSet
271.875 -75 m 2xde
 255.208007812 -75 240.625 -68.75 228.125 -56.25 c 0
 215.625 -43.75 209.375 -29.1669921875 209.375 -12.5 c 2
 209.375 581.25 l 1
 197.916992188 581.25 l 2
 188.888671875 581.25 181.422851562 584.201171875 175.51953125 590.104492188 c 0
 169.6171875 596.006835938 166.666015625 603.471679688 166.666015625 612.5 c 0
 166.666015625 621.528320312 169.6171875 628.993164062 175.51953125 634.895507812 c 0
 181.422851562 640.798828125 188.888671875 643.75 197.916992188 643.75 c 2
 362.5 643.75 l 1xde
 362.5 652.778320312 365.451171875 660.243164062 371.354492188 666.145507812 c 0
 377.256835938 672.048828125 384.721679688 675 393.75 675 c 2
 606.25 675 l 2xbe
 615.278320312 675 622.743164062 672.048828125 628.645507812 666.145507812 c 0
 634.548828125 660.243164062 637.5 652.778320312 637.5 643.75 c 1
 802.083007812 643.75 l 2
 811.111328125 643.75 818.577148438 640.798828125 824.48046875 634.895507812 c 0
 830.3828125 628.993164062 833.333984375 621.528320312 833.333984375 612.5 c 0
 833.333984375 603.471679688 830.3828125 596.006835938 824.48046875 590.104492188 c 0
 818.577148438 584.201171875 811.111328125 581.25 802.083007812 581.25 c 2
 790.625 581.25 l 1
 790.625 -12.5 l 2
 790.625 -29.1669921875 784.375 -43.75 771.875 -56.25 c 0
 759.375 -68.75 744.791992188 -75 728.125 -75 c 2
 271.875 -75 l 2xde
271.875 581.25 m 1
 271.875 -12.5 l 1
 728.125 -12.5 l 1
 728.125 581.25 l 1
 271.875 581.25 l 1
382.291992188 108.333007812 m 2
 382.291992188 461.458007812 l 2
 382.291992188 470.486328125 385.243164062 477.952148438 391.145507812 483.85546875 c 0
 397.048828125 489.7578125 404.514648438 492.708984375 413.54296875 492.708984375 c 0
 422.5703125 492.708984375 430.03515625 489.7578125 435.938476562 483.85546875 c 0
 441.841796875 477.952148438 444.79296875 470.486328125 444.79296875 461.458007812 c 2
 444.79296875 108.333007812 l 2
 444.79296875 99.3056640625 441.841796875 91.8408203125 435.938476562 85.9375 c 0
 430.03515625 80.0341796875 422.5703125 77.0830078125 413.54296875 77.0830078125 c 0
 404.514648438 77.0830078125 397.048828125 80.0341796875 391.145507812 85.9375 c 0
 385.243164062 91.8408203125 382.291992188 99.3056640625 382.291992188 108.333007812 c 2
555.208007812 108.333007812 m 2
 555.208007812 461.458007812 l 2
 555.208007812 470.486328125 558.159179688 477.952148438 564.0625 483.85546875 c 0
 569.965820312 489.7578125 577.430664062 492.708984375 586.458007812 492.708984375 c 0
 595.486328125 492.708984375 602.952148438 489.7578125 608.85546875 483.85546875 c 0
 614.7578125 477.952148438 617.708984375 470.486328125 617.708984375 461.458007812 c 2
 617.708984375 108.333007812 l 2
 617.708984375 99.3056640625 614.7578125 91.8408203125 608.85546875 85.9375 c 0
 602.952148438 80.0341796875 595.486328125 77.0830078125 586.458007812 77.0830078125 c 0
 577.430664062 77.0830078125 569.965820312 80.0341796875 564.0625 85.9375 c 0
 558.159179688 91.8408203125 555.208007812 99.3056640625 555.208007812 108.333007812 c 2
271.875 581.25 m 1
 271.875 -12.5 l 1
 271.875 581.25 l 1
EndSplineSet
Validated: 524293
EndChar

StartChar: u
Encoding: 117 117 38
Width: 1000
GlyphClass: 2
Flags: MW
HStem: -33.3379 270.834 301.059 312.5
VStem: 343.75 312.5<434.392 480.225>
LayerCount: 2
Fore
SplineSet
500 613.55859375 m 0
 545.833007812 613.55859375 583.341796875 598.94140625 612.508789062 569.775390625 c 0
 641.674804688 540.608398438 656.25 503.141601562 656.25 457.30859375 c 0
 656.25 411.474609375 641.674804688 373.966796875 612.508789062 344.799804688 c 0
 583.341796875 315.633789062 545.833007812 301.05859375 500 301.05859375 c 0
 454.166992188 301.05859375 416.658203125 315.633789062 387.491210938 344.799804688 c 0
 358.325195312 373.966796875 343.75 411.474609375 343.75 457.30859375 c 0
 343.75 503.141601562 358.325195312 540.608398438 387.491210938 569.775390625 c 0
 416.658203125 598.942382812 454.166992188 613.55859375 500 613.55859375 c 0
500 237.49609375 m 0
 543.056640625 237.49609375 585.772460938 232.10546875 628.1328125 221.341796875 c 0
 670.493164062 210.577148438 714.947265625 195.134765625 761.474609375 174.99609375 c 0
 783.000976562 165.272460938 800.36328125 151.020507812 813.557617188 132.270507812 c 0
 826.751953125 113.520507812 833.333007812 90.9521484375 833.333007812 64.5625 c 2
 833.333007812 29.162109375 l 2
 833.333007812 11.8017578125 827.255859375 -2.9560546875 815.103515625 -15.1083984375 c 0
 802.952148438 -27.2607421875 788.194335938 -33.337890625 770.833007812 -33.337890625 c 2
 229.166015625 -33.337890625 l 2
 211.805664062 -33.337890625 197.047851562 -27.2607421875 184.895507812 -15.1083984375 c 0
 172.743164062 -2.9560546875 166.666015625 11.8017578125 166.666015625 29.162109375 c 2
 166.666015625 64.5625 l 2
 166.666015625 90.9521484375 173.247070312 113.520507812 186.44140625 132.270507812 c 0
 199.637695312 151.020507812 216.674804688 165.2734375 237.508789062 174.99609375 c 0
 284.03515625 195.829101562 328.62890625 211.454101562 371.337890625 221.87109375 c 0
 414.045898438 232.287109375 456.943359375 237.49609375 500 237.49609375 c 0
EndSplineSet
Validated: 524289
EndChar

StartChar: v
Encoding: 118 118 39
Width: 1000
GlyphClass: 2
Flags: MW
HStem: 513.333 20G
LayerCount: 2
Fore
SplineSet
393.75 68.75 m 0
 389.583007812 68.75 385.763671875 69.4443359375 382.291992188 70.8330078125 c 0
 378.819335938 72.22265625 375.346679688 74.6533203125 371.875 78.125 c 2
 183.333007812 266.666992188 l 2
 177.083007812 272.916992188 173.958007812 280.555664062 173.958007812 289.583007812 c 0
 173.958007812 298.611328125 177.083007812 306.25 183.333007812 312.5 c 0
 189.583007812 318.75 196.875 321.875 205.208007812 321.875 c 0
 213.541015625 321.875 220.833007812 318.75 227.083007812 312.5 c 2
 393.75 145.833007812 l 1
 771.875 523.958007812 l 2
 778.125 530.208007812 785.58984375 533.333007812 794.270507812 533.333007812 c 0
 802.951171875 533.333007812 810.416992188 530.208007812 816.666992188 523.958007812 c 0
 822.916992188 517.708007812 826.041992188 510.243164062 826.041992188 501.5625 c 0
 826.041992188 492.881835938 822.916992188 485.416992188 816.666992188 479.166992188 c 2
 415.625 78.125 l 2
 412.153320312 74.6533203125 408.680664062 72.22265625 405.208007812 70.8330078125 c 0
 401.736328125 69.4443359375 397.916992188 68.75 393.75 68.75 c 0
EndSplineSet
Validated: 524289
EndChar

StartChar: x
Encoding: 120 120 40
Width: 1000
GlyphClass: 2
Flags: MW
HStem: 564.375 20G<259.375 259.375 740.625 740.625>
LayerCount: 2
Fore
SplineSet
259.375 15.625 m 1
 215.625 59.375 l 1
 456.25 300 l 1
 215.625 540.625 l 1
 259.375 584.375 l 1
 500 343.75 l 1
 740.625 584.375 l 1
 784.375 540.625 l 1
 543.75 300 l 1
 784.375 59.375 l 1
 740.625 15.625 l 1
 500 256.25 l 1
 259.375 15.625 l 1
EndSplineSet
Validated: 524289
EndChar
